%FSLAX44Y44*%
%MOMM*%
G71*
G01*
G75*
G04 Layer_Physical_Order=2*
G04 Layer_Color=65280*
G04:AMPARAMS|DCode=10|XSize=1.65mm|YSize=1.4mm|CornerRadius=0.175mm|HoleSize=0mm|Usage=FLASHONLY|Rotation=180.000|XOffset=0mm|YOffset=0mm|HoleType=Round|Shape=RoundedRectangle|*
%AMROUNDEDRECTD10*
21,1,1.6500,1.0500,0,0,180.0*
21,1,1.3000,1.4000,0,0,180.0*
1,1,0.3500,-0.6500,0.5250*
1,1,0.3500,0.6500,0.5250*
1,1,0.3500,0.6500,-0.5250*
1,1,0.3500,-0.6500,-0.5250*
%
%ADD10ROUNDEDRECTD10*%
%ADD11R,1.3000X0.9000*%
%ADD12R,0.9000X1.3000*%
%ADD13R,2.0000X3.0000*%
G04:AMPARAMS|DCode=14|XSize=1mm|YSize=1.25mm|CornerRadius=0.25mm|HoleSize=0mm|Usage=FLASHONLY|Rotation=180.000|XOffset=0mm|YOffset=0mm|HoleType=Round|Shape=RoundedRectangle|*
%AMROUNDEDRECTD14*
21,1,1.0000,0.7500,0,0,180.0*
21,1,0.5000,1.2500,0,0,180.0*
1,1,0.5000,-0.2500,0.3750*
1,1,0.5000,0.2500,0.3750*
1,1,0.5000,0.2500,-0.3750*
1,1,0.5000,-0.2500,-0.3750*
%
%ADD14ROUNDEDRECTD14*%
G04:AMPARAMS|DCode=15|XSize=1mm|YSize=1.25mm|CornerRadius=0.25mm|HoleSize=0mm|Usage=FLASHONLY|Rotation=90.000|XOffset=0mm|YOffset=0mm|HoleType=Round|Shape=RoundedRectangle|*
%AMROUNDEDRECTD15*
21,1,1.0000,0.7500,0,0,90.0*
21,1,0.5000,1.2500,0,0,90.0*
1,1,0.5000,0.3750,0.2500*
1,1,0.5000,0.3750,-0.2500*
1,1,0.5000,-0.3750,-0.2500*
1,1,0.5000,-0.3750,0.2500*
%
%ADD15ROUNDEDRECTD15*%
%ADD16R,0.7000X1.3000*%
%ADD17O,0.3000X1.8000*%
%ADD18O,1.8000X0.3000*%
%ADD19O,3.0000X0.8000*%
%ADD20R,3.0000X0.8000*%
G04:AMPARAMS|DCode=21|XSize=3mm|YSize=1.1mm|CornerRadius=0.275mm|HoleSize=0mm|Usage=FLASHONLY|Rotation=90.000|XOffset=0mm|YOffset=0mm|HoleType=Round|Shape=RoundedRectangle|*
%AMROUNDEDRECTD21*
21,1,3.0000,0.5500,0,0,90.0*
21,1,2.4500,1.1000,0,0,90.0*
1,1,0.5500,0.2750,1.2250*
1,1,0.5500,0.2750,-1.2250*
1,1,0.5500,-0.2750,-1.2250*
1,1,0.5500,-0.2750,1.2250*
%
%ADD21ROUNDEDRECTD21*%
%ADD22R,0.6000X2.1500*%
G04:AMPARAMS|DCode=23|XSize=1.65mm|YSize=1.4mm|CornerRadius=0.175mm|HoleSize=0mm|Usage=FLASHONLY|Rotation=90.000|XOffset=0mm|YOffset=0mm|HoleType=Round|Shape=RoundedRectangle|*
%AMROUNDEDRECTD23*
21,1,1.6500,1.0500,0,0,90.0*
21,1,1.3000,1.4000,0,0,90.0*
1,1,0.3500,0.5250,0.6500*
1,1,0.3500,0.5250,-0.6500*
1,1,0.3500,-0.5250,-0.6500*
1,1,0.3500,-0.5250,0.6500*
%
%ADD23ROUNDEDRECTD23*%
%ADD24C,1.5000*%
%ADD25C,0.5000*%
%ADD26C,0.3000*%
%ADD27C,1.0000*%
%ADD28C,0.7000*%
%ADD29C,2.2000*%
%ADD30C,9.0000*%
%ADD31C,2.0000*%
%ADD32C,1.6000*%
%ADD33C,1.5000*%
%ADD34R,1.5000X1.5000*%
%ADD35C,4.0000*%
%ADD36C,2.5000*%
%ADD37C,0.6000*%
G36*
X1136000Y379000D02*
X1136000D01*
X1136000Y379000D01*
Y364000D01*
X1131195D01*
X1129791Y365424D01*
X1130000Y380000D01*
X1135586D01*
X1136000Y379000D01*
D02*
G37*
G36*
X1185000Y357000D02*
X1562264Y354098D01*
X1562267Y355000D01*
X1723000D01*
Y262000D01*
X1722200Y259000D01*
X1581725D01*
X1569771Y259606D01*
X1569169Y259005D01*
X669163Y260606D01*
X667397Y264196D01*
X667988Y264965D01*
X668624Y266500D01*
X653376D01*
X654012Y264965D01*
X654583Y264221D01*
X652811Y260636D01*
X448000Y261000D01*
X309000Y294000D01*
X306000Y291000D01*
X303000Y294000D01*
Y651000D01*
X370000Y667000D01*
X446791Y690037D01*
X450000Y687650D01*
Y671000D01*
X469000D01*
Y660000D01*
X450000D01*
Y478000D01*
X756000Y476000D01*
Y553587D01*
X756600Y554113D01*
X759211Y554457D01*
X761643Y555464D01*
X763732Y557067D01*
X765335Y559156D01*
X766343Y561589D01*
X766686Y564199D01*
X766343Y566810D01*
X765335Y569243D01*
X763732Y571331D01*
X761643Y572934D01*
X759211Y573942D01*
X756600Y574286D01*
X756000Y574812D01*
Y605400D01*
X759923Y606180D01*
X760012Y605965D01*
X761294Y604294D01*
X762965Y603012D01*
X764500Y602376D01*
Y610000D01*
X767000D01*
Y612500D01*
X774624D01*
X773988Y614035D01*
X772931Y615412D01*
X773740Y617053D01*
X775234Y619000D01*
X810000D01*
Y623000D01*
X824000D01*
X825000Y622000D01*
Y619000D01*
X1052000D01*
X1129000Y541000D01*
X1129087Y521319D01*
X1125695Y519199D01*
X1123025Y520516D01*
X1117191Y522496D01*
X1111148Y523698D01*
X1105000Y524101D01*
X1098852Y523698D01*
X1092809Y522496D01*
X1086975Y520516D01*
X1081450Y517790D01*
X1076327Y514368D01*
X1071695Y510305D01*
X1067632Y505673D01*
X1064210Y500550D01*
X1061485Y495025D01*
X1059504Y489191D01*
X1058302Y483148D01*
X1057971Y478093D01*
X1056339Y478066D01*
Y475934D01*
X1057971Y475907D01*
X1058302Y470852D01*
X1059504Y464809D01*
X1061485Y458975D01*
X1064210Y453450D01*
X1067632Y448327D01*
X1071695Y443695D01*
X1076327Y439632D01*
X1081450Y436209D01*
X1086975Y433484D01*
X1092809Y431504D01*
X1098852Y430302D01*
X1105000Y429899D01*
X1111148Y430302D01*
X1117191Y431504D01*
X1123025Y433484D01*
X1126075Y434989D01*
X1129476Y432884D01*
X1129987Y316835D01*
X1128393Y315233D01*
X1130417D01*
X1130417Y315233D01*
X1130417Y315233D01*
X1131000Y315037D01*
Y294917D01*
X1242776Y294684D01*
X1243375Y294000D01*
X1243873Y290215D01*
X1245334Y286687D01*
X1247658Y283659D01*
X1250687Y281334D01*
X1254215Y279873D01*
X1258000Y279375D01*
X1261785Y279873D01*
X1265313Y281334D01*
X1268342Y283659D01*
X1270666Y286687D01*
X1272127Y290215D01*
X1272625Y294000D01*
X1273171Y294621D01*
X1279940Y294607D01*
X1280335Y291606D01*
X1281644Y288444D01*
X1283728Y285728D01*
X1286444Y283645D01*
X1289606Y282335D01*
X1293000Y281888D01*
X1296394Y282335D01*
X1299556Y283645D01*
X1302272Y285728D01*
X1304355Y288444D01*
X1305665Y291606D01*
X1306000Y294148D01*
X1310000D01*
X1310335Y291606D01*
X1311644Y288444D01*
X1313728Y285728D01*
X1316444Y283645D01*
X1319606Y282335D01*
X1323000Y281888D01*
X1326394Y282335D01*
X1329556Y283645D01*
X1332272Y285728D01*
X1334355Y288444D01*
X1335665Y291606D01*
X1335934Y293648D01*
X1339934D01*
X1340335Y290606D01*
X1341644Y287444D01*
X1343728Y284728D01*
X1346444Y282645D01*
X1349606Y281335D01*
X1353000Y280888D01*
X1356394Y281335D01*
X1359556Y282645D01*
X1362272Y284728D01*
X1364355Y287444D01*
X1365665Y290606D01*
X1366112Y294000D01*
X1366488Y294427D01*
X1373013Y294414D01*
X1373375Y294000D01*
X1373873Y290215D01*
X1375334Y286687D01*
X1377659Y283659D01*
X1380688Y281334D01*
X1384215Y279873D01*
X1388000Y279375D01*
X1391785Y279873D01*
X1395313Y281334D01*
X1398342Y283659D01*
X1400666Y286687D01*
X1402127Y290215D01*
X1402625Y294000D01*
X1402934Y294352D01*
X1562095Y294021D01*
X1562160Y316972D01*
X1151000Y316000D01*
X1150378Y365378D01*
X1150000Y365000D01*
X1145000D01*
Y380000D01*
X1150193D01*
X1149173Y460913D01*
X1150496Y464809D01*
X1151698Y470852D01*
X1152101Y477000D01*
X1151698Y483148D01*
X1150496Y489191D01*
X1148752Y494328D01*
X1148000Y554000D01*
X1067000Y635000D01*
X1034096D01*
X1032985Y636663D01*
X1033691Y638368D01*
X1034104Y641500D01*
X1033691Y644633D01*
X1032482Y647552D01*
X1030559Y650059D01*
X1028052Y651982D01*
X1025133Y653191D01*
X1022000Y653604D01*
X1018867Y653191D01*
X1015948Y651982D01*
X1013442Y650059D01*
X1011518Y647552D01*
X1010309Y644633D01*
X1009896Y641500D01*
X1010309Y638368D01*
X1011015Y636663D01*
X1009904Y635000D01*
X976096D01*
X974985Y636663D01*
X975691Y638368D01*
X976104Y641500D01*
X975691Y644633D01*
X974482Y647552D01*
X972558Y650059D01*
X970052Y651982D01*
X967133Y653191D01*
X964000Y653604D01*
X960867Y653191D01*
X957948Y651982D01*
X955441Y650059D01*
X953518Y647552D01*
X952309Y644633D01*
X951896Y641500D01*
X952309Y638368D01*
X953015Y636663D01*
X951904Y635000D01*
X906096D01*
X904985Y636663D01*
X905691Y638368D01*
X906104Y641500D01*
X905691Y644633D01*
X904482Y647552D01*
X902559Y650059D01*
X900052Y651982D01*
X897133Y653191D01*
X894000Y653604D01*
X890867Y653191D01*
X887948Y651982D01*
X885442Y650059D01*
X883518Y647552D01*
X882309Y644633D01*
X881897Y641500D01*
X882309Y638368D01*
X883015Y636663D01*
X881904Y635000D01*
X825000D01*
Y630000D01*
X810000D01*
Y635000D01*
X757000D01*
X743000Y621000D01*
Y551827D01*
X741106Y551184D01*
X740706Y551706D01*
X739035Y552988D01*
X737500Y553624D01*
Y546000D01*
Y538376D01*
X739035Y539012D01*
X740706Y540294D01*
X741106Y540816D01*
X743000Y540173D01*
Y534000D01*
X690000D01*
X644000Y490000D01*
X518000D01*
X495000Y513000D01*
Y659718D01*
X494282Y659000D01*
X478000D01*
Y669000D01*
X479000Y670000D01*
X495000D01*
Y693000D01*
X546503D01*
X546989Y691060D01*
X545718Y690381D01*
X542368Y687631D01*
X539619Y684281D01*
X537576Y680460D01*
X536318Y676312D01*
X535893Y672000D01*
X536318Y667687D01*
X537576Y663540D01*
X539619Y659718D01*
X542368Y656368D01*
X545718Y653619D01*
X549540Y651576D01*
X553687Y650318D01*
X558000Y649893D01*
X562313Y650318D01*
X566460Y651576D01*
X570281Y653619D01*
X573631Y656368D01*
X576381Y659718D01*
X578423Y663540D01*
X579681Y667687D01*
X580106Y672000D01*
X579681Y676312D01*
X578423Y680460D01*
X576381Y684281D01*
X573631Y687631D01*
X570281Y690381D01*
X569011Y691060D01*
X569496Y693000D01*
X1184000D01*
X1185000Y357000D01*
D02*
G37*
%LPC*%
G36*
X695500Y370500D02*
X690376D01*
X691012Y368965D01*
X692294Y367294D01*
X693966Y366012D01*
X695500Y365376D01*
Y370500D01*
D02*
G37*
G36*
X1110500Y364500D02*
X1105376D01*
X1106012Y362966D01*
X1107294Y361294D01*
X1108966Y360012D01*
X1110500Y359376D01*
Y364500D01*
D02*
G37*
G36*
X1120624D02*
X1115500D01*
Y359376D01*
X1117035Y360012D01*
X1118706Y361294D01*
X1119988Y362966D01*
X1120624Y364500D01*
D02*
G37*
G36*
X1110500Y374624D02*
X1108966Y373988D01*
X1107294Y372706D01*
X1106012Y371035D01*
X1105376Y369500D01*
X1110500D01*
Y374624D01*
D02*
G37*
G36*
X1115500D02*
Y369500D01*
X1120624D01*
X1119988Y371035D01*
X1118706Y372706D01*
X1117035Y373988D01*
X1115500Y374624D01*
D02*
G37*
G36*
X482500Y371624D02*
Y366500D01*
X487624D01*
X486988Y368035D01*
X485706Y369706D01*
X484035Y370988D01*
X482500Y371624D01*
D02*
G37*
G36*
X705624Y370500D02*
X700500D01*
Y365376D01*
X702035Y366012D01*
X703706Y367294D01*
X704988Y368965D01*
X705624Y370500D01*
D02*
G37*
G36*
X477500Y371624D02*
X475965Y370988D01*
X474294Y369706D01*
X473012Y368035D01*
X472376Y366500D01*
X477500D01*
Y371624D01*
D02*
G37*
G36*
X523500Y348624D02*
X521965Y347988D01*
X520294Y346706D01*
X519012Y345034D01*
X518376Y343500D01*
X523500D01*
Y348624D01*
D02*
G37*
G36*
X528500D02*
Y343500D01*
X533624D01*
X532988Y345034D01*
X531706Y346706D01*
X530034Y347988D01*
X528500Y348624D01*
D02*
G37*
G36*
X586500Y347624D02*
Y342500D01*
X591624D01*
X590988Y344035D01*
X589706Y345706D01*
X588035Y346988D01*
X586500Y347624D01*
D02*
G37*
G36*
X649624Y342500D02*
X644500D01*
Y337376D01*
X646034Y338012D01*
X647706Y339294D01*
X648988Y340965D01*
X649624Y342500D01*
D02*
G37*
G36*
X581500Y347624D02*
X579966Y346988D01*
X578295Y345706D01*
X577012Y344035D01*
X576377Y342500D01*
X581500D01*
Y347624D01*
D02*
G37*
G36*
X477500Y361500D02*
X472376D01*
X473012Y359966D01*
X474294Y358294D01*
X475965Y357012D01*
X477500Y356376D01*
Y361500D01*
D02*
G37*
G36*
X487624D02*
X482500D01*
Y356376D01*
X484035Y357012D01*
X485706Y358294D01*
X486988Y359966D01*
X487624Y361500D01*
D02*
G37*
G36*
X644500Y352624D02*
Y347500D01*
X649624D01*
X648988Y349035D01*
X647706Y350706D01*
X646034Y351988D01*
X644500Y352624D01*
D02*
G37*
G36*
X1567900Y344279D02*
X1567137Y344178D01*
X1565563Y343526D01*
D01*
X1564096Y342919D01*
X1561485Y340915D01*
X1559481Y338304D01*
X1558222Y335263D01*
X1558121Y334500D01*
X1567900D01*
Y344279D01*
D02*
G37*
G36*
X639500Y352624D02*
X637966Y351988D01*
X636294Y350706D01*
X635012Y349035D01*
X634376Y347500D01*
X639500D01*
Y352624D01*
D02*
G37*
G36*
X816500Y420826D02*
X816059Y420783D01*
X813232Y419925D01*
X810626Y418532D01*
X808342Y416658D01*
X806468Y414374D01*
X805075Y411768D01*
X804217Y408941D01*
X804174Y408500D01*
X816500D01*
Y420826D01*
D02*
G37*
G36*
X821500D02*
Y408500D01*
X833826D01*
X833783Y408941D01*
X832925Y411768D01*
X831532Y414374D01*
X829658Y416658D01*
X827374Y418532D01*
X824768Y419925D01*
X821941Y420783D01*
X821500Y420826D01*
D02*
G37*
G36*
X678000Y402624D02*
X676465Y401988D01*
X674794Y400706D01*
X673512Y399035D01*
X672876Y397500D01*
X678000D01*
Y402624D01*
D02*
G37*
G36*
X683000D02*
Y397500D01*
X688123D01*
X687488Y399035D01*
X686206Y400706D01*
X684534Y401988D01*
X683000Y402624D01*
D02*
G37*
G36*
X832200Y458582D02*
X829720Y458256D01*
X827409Y457299D01*
X825424Y455776D01*
X823902Y453791D01*
X822944Y451480D01*
X822618Y449000D01*
X822944Y446520D01*
X823902Y444209D01*
X825424Y442225D01*
X827409Y440702D01*
X829720Y439745D01*
X832200Y439418D01*
X834680Y439745D01*
X836991Y440702D01*
X838975Y442225D01*
X840498Y444209D01*
X841455Y446520D01*
X841782Y449000D01*
X841455Y451480D01*
X840498Y453791D01*
X838975Y455776D01*
X836991Y457299D01*
X834680Y458256D01*
X832200Y458582D01*
D02*
G37*
G36*
X1036500Y474500D02*
X1024174D01*
X1024217Y474059D01*
X1025075Y471232D01*
X1026468Y468626D01*
X1028342Y466342D01*
X1030626Y464468D01*
X1033232Y463075D01*
X1036059Y462217D01*
X1036500Y462174D01*
Y474500D01*
D02*
G37*
G36*
X1053826D02*
X1041500D01*
Y462174D01*
X1041941Y462217D01*
X1044768Y463075D01*
X1047374Y464468D01*
X1049658Y466342D01*
X1051532Y468626D01*
X1052925Y471232D01*
X1053783Y474059D01*
X1053826Y474500D01*
D02*
G37*
G36*
X895500Y461500D02*
X885500D01*
Y451500D01*
X895500D01*
Y461500D01*
D02*
G37*
G36*
X880500D02*
X870500D01*
Y452933D01*
X866577Y452153D01*
X865898Y453791D01*
X864375Y455776D01*
X862391Y457299D01*
X860080Y458256D01*
X857600Y458582D01*
X855120Y458256D01*
X852809Y457299D01*
X850824Y455776D01*
X849302Y453791D01*
X848344Y451480D01*
X848018Y449000D01*
X848344Y446520D01*
X849302Y444209D01*
X850824Y442225D01*
X852809Y440702D01*
X855120Y439745D01*
X857600Y439418D01*
X860080Y439745D01*
X862391Y440702D01*
X864375Y442225D01*
X865898Y444209D01*
X866577Y445848D01*
X870500Y445067D01*
Y436500D01*
X875172D01*
X877991Y433663D01*
X877000Y281000D01*
X1093000Y282000D01*
X1091468Y291961D01*
X1093139Y293904D01*
X1095000Y315233D01*
Y404000D01*
X1043000Y436000D01*
X898337Y435123D01*
X895500Y437943D01*
Y446500D01*
X883000D01*
Y449000D01*
X880500D01*
Y461500D01*
D02*
G37*
G36*
X833826Y403500D02*
X821500D01*
Y391174D01*
X821941Y391217D01*
X824768Y392075D01*
X827374Y393468D01*
X829658Y395342D01*
X831532Y397626D01*
X832925Y400232D01*
X833783Y403060D01*
X833826Y403500D01*
D02*
G37*
G36*
X851500Y385500D02*
X846376D01*
X847012Y383965D01*
X848294Y382294D01*
X849966Y381012D01*
X851500Y380376D01*
Y385500D01*
D02*
G37*
G36*
X861624D02*
X856500D01*
Y380376D01*
X858035Y381012D01*
X859706Y382294D01*
X860988Y383965D01*
X861624Y385500D01*
D02*
G37*
G36*
X695500Y380624D02*
X693966Y379988D01*
X692294Y378706D01*
X691012Y377034D01*
X690376Y375500D01*
X695500D01*
Y380624D01*
D02*
G37*
G36*
X700500D02*
Y375500D01*
X705624D01*
X704988Y377034D01*
X703706Y378706D01*
X702035Y379988D01*
X700500Y380624D01*
D02*
G37*
G36*
X678000Y392500D02*
X672876D01*
X673512Y390965D01*
X674794Y389294D01*
X676465Y388012D01*
X678000Y387376D01*
Y392500D01*
D02*
G37*
G36*
X856500Y395624D02*
Y390500D01*
X861624D01*
X860988Y392034D01*
X859706Y393706D01*
X858035Y394988D01*
X856500Y395624D01*
D02*
G37*
G36*
X816500Y403500D02*
X804174D01*
X804217Y403060D01*
X805075Y400232D01*
X806468Y397626D01*
X808342Y395342D01*
X810626Y393468D01*
X813232Y392075D01*
X816059Y391217D01*
X816500Y391174D01*
Y403500D01*
D02*
G37*
G36*
X688123Y392500D02*
X683000D01*
Y387376D01*
X684534Y388012D01*
X686206Y389294D01*
X687488Y390965D01*
X688123Y392500D01*
D02*
G37*
G36*
X851500Y395624D02*
X849966Y394988D01*
X848294Y393706D01*
X847012Y392034D01*
X846376Y390500D01*
X851500D01*
Y395624D01*
D02*
G37*
G36*
X639500Y342500D02*
X634376D01*
X635012Y340965D01*
X636294Y339294D01*
X637966Y338012D01*
X639500Y337376D01*
Y342500D01*
D02*
G37*
G36*
X538300Y311086D02*
X535690Y310743D01*
X533257Y309735D01*
X531168Y308132D01*
X529565Y306043D01*
X528557Y303610D01*
X528214Y301000D01*
X528557Y298389D01*
X529565Y295957D01*
X531168Y293868D01*
X533257Y292265D01*
X535690Y291257D01*
X538300Y290914D01*
X540910Y291257D01*
X543343Y292265D01*
X545432Y293868D01*
X547035Y295957D01*
X548043Y298389D01*
X548386Y301000D01*
X548043Y303610D01*
X547035Y306043D01*
X545432Y308132D01*
X543343Y309735D01*
X540910Y310743D01*
X538300Y311086D01*
D02*
G37*
G36*
X563700D02*
X561090Y310743D01*
X558657Y309735D01*
X556568Y308132D01*
X554965Y306043D01*
X553957Y303610D01*
X553614Y301000D01*
X553957Y298389D01*
X554965Y295957D01*
X556568Y293868D01*
X558657Y292265D01*
X561090Y291257D01*
X563700Y290914D01*
X566311Y291257D01*
X568743Y292265D01*
X570832Y293868D01*
X572435Y295957D01*
X573443Y298389D01*
X573786Y301000D01*
X573443Y303610D01*
X572435Y306043D01*
X570832Y308132D01*
X568743Y309735D01*
X566311Y310743D01*
X563700Y311086D01*
D02*
G37*
G36*
X654300Y310086D02*
X651689Y309743D01*
X649257Y308735D01*
X647168Y307132D01*
X645565Y305043D01*
X644557Y302610D01*
X644213Y300000D01*
X644557Y297390D01*
X645565Y294957D01*
X647168Y292868D01*
X649257Y291265D01*
X651689Y290257D01*
X654300Y289914D01*
X656910Y290257D01*
X659343Y291265D01*
X661432Y292868D01*
X663035Y294957D01*
X664042Y297390D01*
X664386Y300000D01*
X664042Y302610D01*
X663035Y305043D01*
X661432Y307132D01*
X659343Y308735D01*
X656910Y309743D01*
X654300Y310086D01*
D02*
G37*
G36*
X679700D02*
X677089Y309743D01*
X674657Y308735D01*
X672568Y307132D01*
X670965Y305043D01*
X669957Y302610D01*
X669613Y300000D01*
X669957Y297390D01*
X670965Y294957D01*
X672568Y292868D01*
X674657Y291265D01*
X677089Y290257D01*
X679700Y289914D01*
X682310Y290257D01*
X684743Y291265D01*
X686832Y292868D01*
X688435Y294957D01*
X689442Y297390D01*
X689786Y300000D01*
X689442Y302610D01*
X688435Y305043D01*
X686832Y307132D01*
X684743Y308735D01*
X682310Y309743D01*
X679700Y310086D01*
D02*
G37*
G36*
X480300Y311078D02*
X477950Y310768D01*
X475761Y309862D01*
X473881Y308419D01*
X472438Y306539D01*
X471531Y304349D01*
X471222Y302000D01*
X471531Y299650D01*
X472438Y297461D01*
X473881Y295581D01*
X475761Y294139D01*
X477950Y293232D01*
X480300Y292922D01*
X482649Y293232D01*
X484839Y294139D01*
X486719Y295581D01*
X488161Y297461D01*
X489068Y299650D01*
X489377Y302000D01*
X489068Y304349D01*
X488161Y306539D01*
X486719Y308419D01*
X484839Y309862D01*
X482649Y310768D01*
X480300Y311078D01*
D02*
G37*
G36*
X1660500Y312831D02*
X1659863Y312768D01*
X1656847Y311854D01*
X1654068Y310368D01*
X1651631Y308368D01*
X1649632Y305932D01*
X1648146Y303153D01*
X1647231Y300137D01*
X1647169Y299500D01*
X1660500D01*
Y312831D01*
D02*
G37*
G36*
X1665500D02*
Y299500D01*
X1678831D01*
X1678768Y300137D01*
X1677853Y303153D01*
X1676368Y305932D01*
X1674368Y308368D01*
X1671932Y310368D01*
X1669152Y311854D01*
X1666136Y312768D01*
X1665500Y312831D01*
D02*
G37*
G36*
X505700Y311078D02*
X503350Y310768D01*
X501161Y309862D01*
X499281Y308419D01*
X497838Y306539D01*
X496931Y304349D01*
X496622Y302000D01*
X496931Y299650D01*
X497838Y297461D01*
X499281Y295581D01*
X501161Y294139D01*
X503350Y293232D01*
X505700Y292922D01*
X508049Y293232D01*
X510239Y294139D01*
X512119Y295581D01*
X513561Y297461D01*
X514468Y299650D01*
X514777Y302000D01*
X514468Y304349D01*
X513561Y306539D01*
X512119Y308419D01*
X510239Y309862D01*
X508049Y310768D01*
X505700Y311078D01*
D02*
G37*
G36*
X816500Y307826D02*
X816059Y307783D01*
X813232Y306925D01*
X810626Y305532D01*
X808342Y303658D01*
X806468Y301374D01*
X805075Y298768D01*
X804217Y295940D01*
X804174Y295500D01*
X816500D01*
Y307826D01*
D02*
G37*
G36*
X623700Y310086D02*
X621089Y309743D01*
X618657Y308735D01*
X616568Y307132D01*
X614965Y305043D01*
X613957Y302610D01*
X613614Y300000D01*
X613957Y297390D01*
X614965Y294957D01*
X616568Y292868D01*
X618657Y291265D01*
X621089Y290257D01*
X623700Y289914D01*
X626310Y290257D01*
X628743Y291265D01*
X630832Y292868D01*
X632435Y294957D01*
X633442Y297390D01*
X633786Y300000D01*
X633442Y302610D01*
X632435Y305043D01*
X630832Y307132D01*
X628743Y308735D01*
X626310Y309743D01*
X623700Y310086D01*
D02*
G37*
G36*
X816500Y290500D02*
X804174D01*
X804217Y290060D01*
X805075Y287232D01*
X806468Y284626D01*
X808342Y282342D01*
X810626Y280468D01*
X813232Y279075D01*
X816059Y278217D01*
X816500Y278174D01*
Y290500D01*
D02*
G37*
G36*
X833826D02*
X821500D01*
Y278174D01*
X821941Y278217D01*
X824768Y279075D01*
X827374Y280468D01*
X829658Y282342D01*
X831532Y284626D01*
X832925Y287232D01*
X833783Y290060D01*
X833826Y290500D01*
D02*
G37*
G36*
X658500Y276624D02*
X656965Y275988D01*
X655294Y274706D01*
X654012Y273034D01*
X653376Y271500D01*
X658500D01*
Y276624D01*
D02*
G37*
G36*
X663500D02*
Y271500D01*
X668624D01*
X667988Y273034D01*
X666706Y274706D01*
X665034Y275988D01*
X663500Y276624D01*
D02*
G37*
G36*
X720000Y327603D02*
X716867Y327191D01*
X713948Y325982D01*
X711441Y324058D01*
X709518Y321552D01*
X708309Y318633D01*
X707896Y315500D01*
X708309Y312367D01*
X709518Y309448D01*
X711441Y306941D01*
X713948Y305018D01*
X716867Y303809D01*
X720000Y303396D01*
X723132Y303809D01*
X724187Y304245D01*
X724297Y304055D01*
Y304055D01*
X726187Y300781D01*
X723942Y299059D01*
X722018Y296552D01*
X720809Y293633D01*
X720397Y290500D01*
X720809Y287367D01*
X722018Y284448D01*
X723942Y281942D01*
X726448Y280018D01*
X729368Y278809D01*
X732500Y278397D01*
X735633Y278809D01*
X738552Y280018D01*
X741059Y281942D01*
X742982Y284448D01*
X744191Y287367D01*
X744604Y290500D01*
X744191Y293633D01*
X742982Y296552D01*
X741059Y299059D01*
X738552Y300982D01*
X735633Y302191D01*
X732500Y302604D01*
X729368Y302191D01*
X728313Y301755D01*
X728203Y301945D01*
Y301946D01*
X726313Y305219D01*
X728558Y306941D01*
X730482Y309448D01*
X731691Y312367D01*
X732103Y315500D01*
X731691Y318633D01*
X730482Y321552D01*
X728558Y324058D01*
X726052Y325982D01*
X723132Y327191D01*
X720000Y327603D01*
D02*
G37*
G36*
X1610000Y310112D02*
X1606606Y309665D01*
X1603444Y308356D01*
X1600728Y306272D01*
X1598645Y303556D01*
X1597335Y300394D01*
X1596888Y297000D01*
X1597335Y293606D01*
X1598645Y290444D01*
X1600728Y287728D01*
X1603444Y285644D01*
X1606606Y284335D01*
X1610000Y283888D01*
X1613394Y284335D01*
X1616556Y285644D01*
X1619272Y287728D01*
X1621356Y290444D01*
X1622666Y293606D01*
X1623112Y297000D01*
X1622666Y300394D01*
X1621356Y303556D01*
X1619272Y306272D01*
X1616556Y308356D01*
X1613394Y309665D01*
X1610000Y310112D01*
D02*
G37*
G36*
X598300Y310086D02*
X595689Y309743D01*
X593257Y308735D01*
X591168Y307132D01*
X589565Y305043D01*
X588557Y302610D01*
X588214Y300000D01*
X588557Y297390D01*
X589565Y294957D01*
X591168Y292868D01*
X593257Y291265D01*
X595689Y290257D01*
X598300Y289914D01*
X600910Y290257D01*
X603343Y291265D01*
X605432Y292868D01*
X607035Y294957D01*
X608042Y297390D01*
X608386Y300000D01*
X608042Y302610D01*
X607035Y305043D01*
X605432Y307132D01*
X603343Y308735D01*
X600910Y309743D01*
X598300Y310086D01*
D02*
G37*
G36*
X1660500Y294500D02*
X1647169D01*
X1647231Y293863D01*
X1648146Y290847D01*
X1649632Y288068D01*
X1651631Y285632D01*
X1654068Y283632D01*
X1656847Y282146D01*
X1659863Y281231D01*
X1660500Y281169D01*
Y294500D01*
D02*
G37*
G36*
X1678831D02*
X1665500D01*
Y281169D01*
X1666136Y281231D01*
X1669152Y282146D01*
X1671932Y283632D01*
X1674368Y285632D01*
X1676368Y288068D01*
X1677853Y290847D01*
X1678768Y293863D01*
X1678831Y294500D01*
D02*
G37*
G36*
X581500Y337500D02*
X576377D01*
X577012Y335966D01*
X578295Y334295D01*
X579966Y333012D01*
X581500Y332377D01*
Y337500D01*
D02*
G37*
G36*
X591624D02*
X586500D01*
Y332377D01*
X588035Y333012D01*
X589706Y334295D01*
X590988Y335966D01*
X591624Y337500D01*
D02*
G37*
G36*
X1248600Y332011D02*
X1243476D01*
X1244112Y330477D01*
X1245394Y328806D01*
X1247066Y327523D01*
X1248600Y326888D01*
Y332011D01*
D02*
G37*
G36*
X1258724D02*
X1253600D01*
Y326888D01*
X1255135Y327523D01*
X1256806Y328806D01*
X1258088Y330477D01*
X1258724Y332011D01*
D02*
G37*
G36*
X523500Y338500D02*
X518376D01*
X519012Y336965D01*
X520294Y335294D01*
X521965Y334012D01*
X523500Y333376D01*
Y338500D01*
D02*
G37*
G36*
X1248600Y342135D02*
X1247066Y341499D01*
X1245394Y340217D01*
X1244112Y338546D01*
X1243476Y337011D01*
X1248600D01*
Y342135D01*
D02*
G37*
G36*
X1253600D02*
Y337011D01*
X1258724D01*
X1258088Y338546D01*
X1256806Y340217D01*
X1255135Y341499D01*
X1253600Y342135D01*
D02*
G37*
G36*
X533624Y338500D02*
X528500D01*
Y333376D01*
X530034Y334012D01*
X531706Y335294D01*
X532988Y336965D01*
X533624Y338500D01*
D02*
G37*
G36*
X1572900Y344279D02*
Y334500D01*
X1582679D01*
X1582578Y335263D01*
X1581319Y338304D01*
X1579315Y340915D01*
X1576704Y342919D01*
X1573663Y344178D01*
X1572900Y344279D01*
D02*
G37*
G36*
X1639500Y339831D02*
Y326500D01*
X1652831D01*
X1652768Y327137D01*
X1651853Y330153D01*
X1650368Y332932D01*
X1648368Y335369D01*
X1645932Y337368D01*
X1643152Y338854D01*
X1640136Y339769D01*
X1639500Y339831D01*
D02*
G37*
G36*
X1652831Y321500D02*
X1639500D01*
Y308169D01*
X1640136Y308232D01*
X1643152Y309147D01*
X1645932Y310632D01*
X1648368Y312632D01*
X1650368Y315068D01*
X1651853Y317848D01*
X1652768Y320864D01*
X1652831Y321500D01*
D02*
G37*
G36*
X1111500Y317624D02*
X1109966Y316988D01*
X1108294Y315706D01*
X1107932Y315233D01*
X1111500D01*
Y317624D01*
D02*
G37*
G36*
X725000Y418098D02*
X723049Y417710D01*
X721395Y416605D01*
X720290Y414951D01*
X719902Y413000D01*
X720290Y411049D01*
X721395Y409395D01*
X723049Y408290D01*
X723049Y408290D01*
X723049D01*
X725395Y406105D01*
X724290Y404451D01*
X723902Y402500D01*
X724290Y400549D01*
X725395Y398895D01*
X727049Y397790D01*
X727264Y397747D01*
X789888Y331179D01*
X788544Y327412D01*
X786868Y327191D01*
X783948Y325982D01*
X781442Y324058D01*
X779518Y321552D01*
X778309Y318633D01*
X777897Y315500D01*
X778309Y312367D01*
X779518Y309448D01*
X781442Y306941D01*
X783687Y305219D01*
X781797Y301946D01*
Y301945D01*
X781687Y301755D01*
X780632Y302191D01*
X777500Y302604D01*
X774367Y302191D01*
X771448Y300982D01*
X768941Y299059D01*
X767018Y296552D01*
X765809Y293633D01*
X765396Y290500D01*
X765809Y287367D01*
X767018Y284448D01*
X768941Y281942D01*
X771448Y280018D01*
X774367Y278809D01*
X777500Y278397D01*
X780632Y278809D01*
X783552Y280018D01*
X786058Y281942D01*
X787982Y284448D01*
X789191Y287367D01*
X789603Y290500D01*
X789191Y293633D01*
X787982Y296552D01*
X786058Y299059D01*
X783813Y300781D01*
X785703Y304055D01*
Y304055D01*
X785813Y304245D01*
X786868Y303809D01*
X790000Y303396D01*
X793133Y303809D01*
X796052Y305018D01*
X798559Y306941D01*
X800482Y309448D01*
X801691Y312367D01*
X802104Y315500D01*
X801782Y317943D01*
X805179Y320056D01*
X805994Y319511D01*
X807750Y319162D01*
X818694D01*
X820000Y318902D01*
X821951Y319290D01*
X823605Y320395D01*
X824584Y321861D01*
X828412Y320700D01*
Y314133D01*
X828290Y313951D01*
X827902Y312000D01*
X828290Y310049D01*
X828921Y309105D01*
X826235Y306141D01*
X824768Y306925D01*
X821941Y307783D01*
X821500Y307826D01*
Y295500D01*
X833826D01*
X833783Y295940D01*
X832925Y298768D01*
X831532Y301374D01*
X829658Y303658D01*
X832416Y307018D01*
X833000Y306902D01*
X834951Y307290D01*
X836605Y308395D01*
X837710Y310049D01*
X838098Y312000D01*
X837710Y313951D01*
X837588Y314133D01*
Y358000D01*
X837239Y359756D01*
X836244Y361244D01*
X835753Y361736D01*
X835710Y361951D01*
X834605Y363605D01*
X832951Y364710D01*
X831000Y365098D01*
X829049Y364710D01*
X827395Y363605D01*
X826290Y361951D01*
X820358Y363131D01*
X767244Y416244D01*
X765756Y417239D01*
X764000Y417588D01*
X727133D01*
X726951Y417710D01*
X725000Y418098D01*
D02*
G37*
G36*
X1634500Y321500D02*
X1621169D01*
X1621231Y320864D01*
X1622146Y317848D01*
X1623632Y315068D01*
X1625631Y312632D01*
X1628068Y310632D01*
X1630847Y309147D01*
X1633863Y308232D01*
X1634500Y308169D01*
Y321500D01*
D02*
G37*
G36*
X1116500Y317624D02*
Y315233D01*
X1120068D01*
X1119706Y315706D01*
X1118035Y316988D01*
X1116500Y317624D01*
D02*
G37*
G36*
X1554500Y341500D02*
X1535500D01*
Y322500D01*
X1554500D01*
Y341500D01*
D02*
G37*
G36*
X1634500Y339831D02*
X1633863Y339769D01*
X1630847Y338854D01*
X1628068Y337368D01*
X1625631Y335369D01*
X1623632Y332932D01*
X1622146Y330153D01*
X1621231Y327137D01*
X1621169Y326500D01*
X1634500D01*
Y339831D01*
D02*
G37*
G36*
X1567900Y329500D02*
X1558121D01*
X1558222Y328737D01*
X1559481Y325696D01*
X1561485Y323085D01*
X1564096Y321081D01*
X1565493Y320503D01*
X1567137Y319822D01*
X1567900Y319721D01*
Y329500D01*
D02*
G37*
G36*
X1582679D02*
X1572900D01*
Y319721D01*
X1573663Y319822D01*
X1576704Y321081D01*
X1579315Y323085D01*
X1581319Y325696D01*
X1582578Y328737D01*
X1582679Y329500D01*
D02*
G37*
G36*
X558000Y641107D02*
X553687Y640682D01*
X549540Y639424D01*
X545718Y637381D01*
X542368Y634632D01*
X539619Y631282D01*
X537576Y627460D01*
X536318Y623313D01*
X535893Y619000D01*
X536318Y614687D01*
X537576Y610540D01*
X539619Y606718D01*
X542368Y603368D01*
X545718Y600619D01*
X549540Y598577D01*
X553687Y597318D01*
X558000Y596894D01*
X562313Y597318D01*
X566460Y598577D01*
X570281Y600619D01*
X573631Y603368D01*
X576381Y606718D01*
X578423Y610540D01*
X579681Y614687D01*
X580106Y619000D01*
X579681Y623313D01*
X578423Y627460D01*
X576381Y631282D01*
X573631Y634632D01*
X570281Y637381D01*
X566460Y639424D01*
X562313Y640682D01*
X558000Y641107D01*
D02*
G37*
G36*
X424500Y602624D02*
X422965Y601988D01*
X421294Y600706D01*
X420012Y599035D01*
X419376Y597500D01*
X424500D01*
Y602624D01*
D02*
G37*
G36*
X1133624Y597500D02*
X1128500D01*
Y592376D01*
X1130034Y593012D01*
X1131706Y594294D01*
X1132988Y595965D01*
X1133624Y597500D01*
D02*
G37*
G36*
X389000Y613386D02*
X386390Y613043D01*
X383957Y612035D01*
X381868Y610432D01*
X380265Y608343D01*
X379257Y605911D01*
X378914Y603300D01*
X379257Y600690D01*
X380265Y598257D01*
X381868Y596168D01*
X383957Y594565D01*
X386390Y593558D01*
X389000Y593214D01*
X391610Y593558D01*
X394043Y594565D01*
X396132Y596168D01*
X397735Y598257D01*
X398743Y600690D01*
X399086Y603300D01*
X398743Y605911D01*
X397735Y608343D01*
X396132Y610432D01*
X394043Y612035D01*
X391610Y613043D01*
X389000Y613386D01*
D02*
G37*
G36*
X429500Y602624D02*
Y597500D01*
X434623D01*
X433988Y599035D01*
X432705Y600706D01*
X431034Y601988D01*
X429500Y602624D01*
D02*
G37*
G36*
X815500Y607624D02*
Y602500D01*
X820624D01*
X819988Y604035D01*
X818706Y605706D01*
X817035Y606988D01*
X815500Y607624D01*
D02*
G37*
G36*
X1123500D02*
X1121965Y606988D01*
X1120294Y605706D01*
X1119012Y604035D01*
X1118376Y602500D01*
X1123500D01*
Y607624D01*
D02*
G37*
G36*
X774624Y607500D02*
X769500D01*
Y602376D01*
X771034Y603012D01*
X772706Y604294D01*
X773988Y605965D01*
X774624Y607500D01*
D02*
G37*
G36*
X810500Y607624D02*
X808966Y606988D01*
X807294Y605706D01*
X806012Y604035D01*
X805376Y602500D01*
X810500D01*
Y607624D01*
D02*
G37*
G36*
X1123500Y597500D02*
X1118376D01*
X1119012Y595965D01*
X1120294Y594294D01*
X1121965Y593012D01*
X1123500Y592376D01*
Y597500D01*
D02*
G37*
G36*
X600624Y581500D02*
X595500D01*
Y576376D01*
X597034Y577012D01*
X598706Y578294D01*
X599988Y579966D01*
X600624Y581500D01*
D02*
G37*
G36*
X590500Y591624D02*
X588965Y590988D01*
X587294Y589706D01*
X586012Y588035D01*
X585376Y586500D01*
X590500D01*
Y591624D01*
D02*
G37*
G36*
X717500Y568624D02*
Y563500D01*
X722624D01*
X721988Y565034D01*
X720706Y566706D01*
X719035Y567988D01*
X717500Y568624D01*
D02*
G37*
G36*
X590500Y581500D02*
X585376D01*
X586012Y579966D01*
X587294Y578294D01*
X588965Y577012D01*
X590500Y576376D01*
Y581500D01*
D02*
G37*
G36*
X595500Y591624D02*
Y586500D01*
X600624D01*
X599988Y588035D01*
X598706Y589706D01*
X597034Y590988D01*
X595500Y591624D01*
D02*
G37*
G36*
X810500Y597500D02*
X805376D01*
X806012Y595965D01*
X807294Y594294D01*
X808966Y593012D01*
X810500Y592376D01*
Y597500D01*
D02*
G37*
G36*
X820624D02*
X815500D01*
Y592376D01*
X817035Y593012D01*
X818706Y594294D01*
X819988Y595965D01*
X820624Y597500D01*
D02*
G37*
G36*
X424500Y592500D02*
X419376D01*
X420012Y590966D01*
X421294Y589295D01*
X422965Y588012D01*
X424500Y587377D01*
Y592500D01*
D02*
G37*
G36*
X434623D02*
X429500D01*
Y587377D01*
X431034Y588012D01*
X432705Y589295D01*
X433988Y590966D01*
X434623Y592500D01*
D02*
G37*
G36*
X951500Y678603D02*
X948367Y678191D01*
X945448Y676982D01*
X942942Y675058D01*
X941018Y672552D01*
X939809Y669632D01*
X939397Y666500D01*
X939809Y663367D01*
X941018Y660448D01*
X942942Y657941D01*
X945448Y656018D01*
X948367Y654809D01*
X951500Y654396D01*
X954633Y654809D01*
X957552Y656018D01*
X960059Y657941D01*
X961982Y660448D01*
X963191Y663367D01*
X963604Y666500D01*
X963191Y669632D01*
X961982Y672552D01*
X960059Y675058D01*
X957552Y676982D01*
X954633Y678191D01*
X951500Y678603D01*
D02*
G37*
G36*
X1034500D02*
X1031367Y678191D01*
X1028448Y676982D01*
X1025941Y675058D01*
X1024018Y672552D01*
X1022809Y669632D01*
X1022396Y666500D01*
X1022809Y663367D01*
X1024018Y660448D01*
X1025941Y657941D01*
X1028448Y656018D01*
X1031367Y654809D01*
X1034500Y654396D01*
X1037633Y654809D01*
X1040552Y656018D01*
X1043058Y657941D01*
X1044982Y660448D01*
X1046191Y663367D01*
X1046603Y666500D01*
X1046191Y669632D01*
X1044982Y672552D01*
X1043058Y675058D01*
X1040552Y676982D01*
X1037633Y678191D01*
X1034500Y678603D01*
D02*
G37*
G36*
X701500Y656624D02*
Y651500D01*
X706624D01*
X705988Y653035D01*
X704706Y654706D01*
X703035Y655988D01*
X701500Y656624D01*
D02*
G37*
G36*
X906500Y678603D02*
X903367Y678191D01*
X900448Y676982D01*
X897941Y675058D01*
X896018Y672552D01*
X894809Y669632D01*
X894396Y666500D01*
X894809Y663367D01*
X896018Y660448D01*
X897941Y657941D01*
X900448Y656018D01*
X903367Y654809D01*
X906500Y654396D01*
X909632Y654809D01*
X912552Y656018D01*
X915058Y657941D01*
X916982Y660448D01*
X918191Y663367D01*
X918604Y666500D01*
X918191Y669632D01*
X916982Y672552D01*
X915058Y675058D01*
X912552Y676982D01*
X909632Y678191D01*
X906500Y678603D01*
D02*
G37*
G36*
X1079500D02*
X1076367Y678191D01*
X1073448Y676982D01*
X1070942Y675058D01*
X1069018Y672552D01*
X1067809Y669632D01*
X1067396Y666500D01*
X1067809Y663367D01*
X1069018Y660448D01*
X1070942Y657941D01*
X1073448Y656018D01*
X1076367Y654809D01*
X1079500Y654396D01*
X1082633Y654809D01*
X1085552Y656018D01*
X1088059Y657941D01*
X1089982Y660448D01*
X1091191Y663367D01*
X1091604Y666500D01*
X1091191Y669632D01*
X1089982Y672552D01*
X1088059Y675058D01*
X1085552Y676982D01*
X1082633Y678191D01*
X1079500Y678603D01*
D02*
G37*
G36*
X596500Y677624D02*
X594966Y676988D01*
X593294Y675706D01*
X592012Y674035D01*
X591376Y672500D01*
X596500D01*
Y677624D01*
D02*
G37*
G36*
X601500D02*
Y672500D01*
X606624D01*
X605988Y674035D01*
X604706Y675706D01*
X603035Y676988D01*
X601500Y677624D01*
D02*
G37*
G36*
X596500Y667500D02*
X591376D01*
X592012Y665965D01*
X593294Y664294D01*
X594966Y663012D01*
X596500Y662376D01*
Y667500D01*
D02*
G37*
G36*
X606624D02*
X601500D01*
Y662376D01*
X603035Y663012D01*
X604706Y664294D01*
X605988Y665965D01*
X606624Y667500D01*
D02*
G37*
G36*
X696500Y656624D02*
X694966Y655988D01*
X693294Y654706D01*
X692012Y653035D01*
X691376Y651500D01*
X696500D01*
Y656624D01*
D02*
G37*
G36*
X1092000Y653604D02*
X1088867Y653191D01*
X1085948Y651982D01*
X1083441Y650059D01*
X1081518Y647552D01*
X1080309Y644633D01*
X1079896Y641500D01*
X1080309Y638368D01*
X1081518Y635448D01*
X1083441Y632942D01*
X1085948Y631018D01*
X1088867Y629809D01*
X1092000Y629397D01*
X1095133Y629809D01*
X1098052Y631018D01*
X1100558Y632942D01*
X1102482Y635448D01*
X1103691Y638368D01*
X1104103Y641500D01*
X1103691Y644633D01*
X1102482Y647552D01*
X1100558Y650059D01*
X1098052Y651982D01*
X1095133Y653191D01*
X1092000Y653604D01*
D02*
G37*
G36*
X988500Y644500D02*
X983376D01*
X984012Y642965D01*
X985294Y641294D01*
X986965Y640012D01*
X988500Y639376D01*
Y644500D01*
D02*
G37*
G36*
X1128500Y607624D02*
Y602500D01*
X1133624D01*
X1132988Y604035D01*
X1131706Y605706D01*
X1130034Y606988D01*
X1128500Y607624D01*
D02*
G37*
G36*
X389000Y638787D02*
X386390Y638443D01*
X383957Y637435D01*
X381868Y635832D01*
X380265Y633743D01*
X379257Y631311D01*
X378914Y628700D01*
X379257Y626090D01*
X380265Y623657D01*
X381868Y621568D01*
X383957Y619965D01*
X386390Y618958D01*
X389000Y618614D01*
X391610Y618958D01*
X394043Y619965D01*
X396132Y621568D01*
X397735Y623657D01*
X398743Y626090D01*
X399086Y628700D01*
X398743Y631311D01*
X397735Y633743D01*
X396132Y635832D01*
X394043Y637435D01*
X391610Y638443D01*
X389000Y638787D01*
D02*
G37*
G36*
X998624Y644500D02*
X993500D01*
Y639376D01*
X995034Y640012D01*
X996706Y641294D01*
X997988Y642965D01*
X998624Y644500D01*
D02*
G37*
G36*
X988500Y654624D02*
X986965Y653988D01*
X985294Y652706D01*
X984012Y651034D01*
X983376Y649500D01*
X988500D01*
Y654624D01*
D02*
G37*
G36*
X993500D02*
Y649500D01*
X998624D01*
X997988Y651034D01*
X996706Y652706D01*
X995034Y653988D01*
X993500Y654624D01*
D02*
G37*
G36*
X696500Y646500D02*
X691376D01*
X692012Y644966D01*
X693294Y643294D01*
X694966Y642012D01*
X696500Y641376D01*
Y646500D01*
D02*
G37*
G36*
X706624D02*
X701500D01*
Y641376D01*
X703035Y642012D01*
X704706Y643294D01*
X705988Y644966D01*
X706624Y646500D01*
D02*
G37*
G36*
X712500Y568624D02*
X710965Y567988D01*
X709294Y566706D01*
X708012Y565034D01*
X707376Y563500D01*
X712500D01*
Y568624D01*
D02*
G37*
G36*
X829500Y504500D02*
X824376D01*
X825012Y502966D01*
X826294Y501294D01*
X827965Y500012D01*
X829500Y499376D01*
Y504500D01*
D02*
G37*
G36*
X839624D02*
X834500D01*
Y499376D01*
X836034Y500012D01*
X837706Y501294D01*
X838988Y502966D01*
X839624Y504500D01*
D02*
G37*
G36*
X412500Y500500D02*
X407377D01*
X408012Y498966D01*
X409295Y497295D01*
X410966Y496012D01*
X412500Y495377D01*
Y500500D01*
D02*
G37*
G36*
X422624D02*
X417500D01*
Y495377D01*
X419035Y496012D01*
X420706Y497295D01*
X421988Y498966D01*
X422624Y500500D01*
D02*
G37*
G36*
X412500Y510624D02*
X410966Y509988D01*
X409295Y508706D01*
X408012Y507035D01*
X407377Y505500D01*
X412500D01*
Y510624D01*
D02*
G37*
G36*
X834500Y514624D02*
Y509500D01*
X839624D01*
X838988Y511035D01*
X837706Y512706D01*
X836034Y513988D01*
X834500Y514624D01*
D02*
G37*
G36*
X588500Y516500D02*
X583376D01*
X584012Y514966D01*
X585294Y513294D01*
X586965Y512012D01*
X588500Y511376D01*
Y516500D01*
D02*
G37*
G36*
X417500Y510624D02*
Y505500D01*
X422624D01*
X421988Y507035D01*
X420706Y508706D01*
X419035Y509988D01*
X417500Y510624D01*
D02*
G37*
G36*
X829500Y514624D02*
X827965Y513988D01*
X826294Y512706D01*
X825012Y511035D01*
X824376Y509500D01*
X829500D01*
Y514624D01*
D02*
G37*
G36*
X892500Y495826D02*
Y483500D01*
X904826D01*
X904783Y483941D01*
X903925Y486768D01*
X902532Y489374D01*
X900658Y491658D01*
X898374Y493532D01*
X895768Y494925D01*
X892941Y495783D01*
X892500Y495826D01*
D02*
G37*
G36*
X844500Y474500D02*
X839376D01*
X840012Y472966D01*
X841294Y471294D01*
X842965Y470012D01*
X844500Y469376D01*
Y474500D01*
D02*
G37*
G36*
X854624D02*
X849500D01*
Y469376D01*
X851034Y470012D01*
X852706Y471294D01*
X853988Y472966D01*
X854624Y474500D01*
D02*
G37*
G36*
X887500Y478500D02*
X875174D01*
X875217Y478060D01*
X876075Y475232D01*
X877468Y472626D01*
X879342Y470342D01*
X881626Y468468D01*
X884232Y467075D01*
X887059Y466217D01*
X887500Y466174D01*
Y478500D01*
D02*
G37*
G36*
X904826D02*
X892500D01*
Y466174D01*
X892941Y466217D01*
X895768Y467075D01*
X898374Y468468D01*
X900658Y470342D01*
X902532Y472626D01*
X903925Y475232D01*
X904783Y478060D01*
X904826Y478500D01*
D02*
G37*
G36*
X844500Y484624D02*
X842965Y483988D01*
X841294Y482706D01*
X840012Y481035D01*
X839376Y479500D01*
X844500D01*
Y484624D01*
D02*
G37*
G36*
X1041500Y491826D02*
Y479500D01*
X1053826D01*
X1053783Y479940D01*
X1052925Y482768D01*
X1051532Y485374D01*
X1049658Y487658D01*
X1047374Y489532D01*
X1044768Y490925D01*
X1041941Y491783D01*
X1041500Y491826D01*
D02*
G37*
G36*
X887500Y495826D02*
X887059Y495783D01*
X884232Y494925D01*
X881626Y493532D01*
X879342Y491658D01*
X877468Y489374D01*
X876075Y486768D01*
X875217Y483941D01*
X875174Y483500D01*
X887500D01*
Y495826D01*
D02*
G37*
G36*
X849500Y484624D02*
Y479500D01*
X854624D01*
X853988Y481035D01*
X852706Y482706D01*
X851034Y483988D01*
X849500Y484624D01*
D02*
G37*
G36*
X1036500Y491826D02*
X1036059Y491783D01*
X1033232Y490925D01*
X1030626Y489532D01*
X1028342Y487658D01*
X1026468Y485374D01*
X1025075Y482768D01*
X1024217Y479940D01*
X1024174Y479500D01*
X1036500D01*
Y491826D01*
D02*
G37*
G36*
X722624Y558500D02*
X717500D01*
Y553376D01*
X719035Y554012D01*
X720706Y555294D01*
X721988Y556965D01*
X722624Y558500D01*
D02*
G37*
G36*
X805401Y574286D02*
X802790Y573942D01*
X800358Y572934D01*
X798269Y571331D01*
X796666Y569243D01*
X795658Y566810D01*
X795314Y564199D01*
X795658Y561589D01*
X796666Y559156D01*
X798269Y557067D01*
X800358Y555464D01*
X802790Y554457D01*
X805401Y554113D01*
X808011Y554457D01*
X810444Y555464D01*
X812533Y557067D01*
X814136Y559156D01*
X815143Y561589D01*
X815487Y564199D01*
X815143Y566810D01*
X814136Y569243D01*
X812533Y571331D01*
X810444Y572934D01*
X808011Y573942D01*
X805401Y574286D01*
D02*
G37*
G36*
X1057624Y554500D02*
X1052500D01*
Y549376D01*
X1054035Y550012D01*
X1055706Y551294D01*
X1056988Y552966D01*
X1057624Y554500D01*
D02*
G37*
G36*
X712500Y558500D02*
X707376D01*
X708012Y556965D01*
X709294Y555294D01*
X710965Y554012D01*
X712500Y553376D01*
Y558500D01*
D02*
G37*
G36*
X942500Y559624D02*
X940965Y558988D01*
X939294Y557706D01*
X938012Y556035D01*
X937376Y554500D01*
X942500D01*
Y559624D01*
D02*
G37*
G36*
X1052500Y564624D02*
Y559500D01*
X1057624D01*
X1056988Y561035D01*
X1055706Y562706D01*
X1054035Y563988D01*
X1052500Y564624D01*
D02*
G37*
G36*
X389000Y581786D02*
X386390Y581443D01*
X383957Y580435D01*
X381868Y578832D01*
X380265Y576743D01*
X379257Y574310D01*
X378914Y571700D01*
X379257Y569090D01*
X380265Y566657D01*
X381868Y564568D01*
X383957Y562965D01*
X386390Y561957D01*
X389000Y561614D01*
X391610Y561957D01*
X394043Y562965D01*
X396132Y564568D01*
X397735Y566657D01*
X398743Y569090D01*
X399086Y571700D01*
X398743Y574310D01*
X397735Y576743D01*
X396132Y578832D01*
X394043Y580435D01*
X391610Y581443D01*
X389000Y581786D01*
D02*
G37*
G36*
X947500Y559624D02*
Y554500D01*
X952624D01*
X951988Y556035D01*
X950706Y557706D01*
X949035Y558988D01*
X947500Y559624D01*
D02*
G37*
G36*
X1047500Y564624D02*
X1045965Y563988D01*
X1044294Y562706D01*
X1043012Y561035D01*
X1042376Y559500D01*
X1047500D01*
Y564624D01*
D02*
G37*
G36*
Y554500D02*
X1042376D01*
X1043012Y552966D01*
X1044294Y551294D01*
X1045965Y550012D01*
X1047500Y549376D01*
Y554500D01*
D02*
G37*
G36*
X593500Y526624D02*
Y521500D01*
X598624D01*
X597988Y523035D01*
X596706Y524706D01*
X595034Y525988D01*
X593500Y526624D01*
D02*
G37*
G36*
X389000Y556386D02*
X386390Y556043D01*
X383957Y555035D01*
X381868Y553432D01*
X380265Y551343D01*
X379257Y548910D01*
X378914Y546300D01*
X379257Y543689D01*
X380265Y541257D01*
X381868Y539168D01*
X383957Y537565D01*
X386390Y536557D01*
X389000Y536214D01*
X391610Y536557D01*
X394043Y537565D01*
X396132Y539168D01*
X397735Y541257D01*
X398743Y543689D01*
X399086Y546300D01*
X398743Y548910D01*
X397735Y551343D01*
X396132Y553432D01*
X394043Y555035D01*
X391610Y556043D01*
X389000Y556386D01*
D02*
G37*
G36*
X598624Y516500D02*
X593500D01*
Y511376D01*
X595034Y512012D01*
X596706Y513294D01*
X597988Y514966D01*
X598624Y516500D01*
D02*
G37*
G36*
X588500Y526624D02*
X586965Y525988D01*
X585294Y524706D01*
X584012Y523035D01*
X583376Y521500D01*
X588500D01*
Y526624D01*
D02*
G37*
G36*
X732500Y543500D02*
X727376D01*
X728012Y541965D01*
X729294Y540294D01*
X730965Y539012D01*
X732500Y538376D01*
Y543500D01*
D02*
G37*
G36*
X952624Y549500D02*
X947500D01*
Y544376D01*
X949035Y545012D01*
X950706Y546294D01*
X951988Y547966D01*
X952624Y549500D01*
D02*
G37*
G36*
X732500Y553624D02*
X730965Y552988D01*
X729294Y551706D01*
X728012Y550034D01*
X727376Y548500D01*
X732500D01*
Y553624D01*
D02*
G37*
G36*
X558000Y583106D02*
X553687Y582681D01*
X549540Y581423D01*
X545718Y579381D01*
X542368Y576631D01*
X539619Y573281D01*
X537576Y569459D01*
X536318Y565312D01*
X535893Y561000D01*
X536318Y556687D01*
X537576Y552540D01*
X539619Y548718D01*
X542368Y545368D01*
X545718Y542619D01*
X549540Y540576D01*
X553687Y539318D01*
X558000Y538893D01*
X562313Y539318D01*
X566460Y540576D01*
X570281Y542619D01*
X573631Y545368D01*
X576381Y548718D01*
X578423Y552540D01*
X579681Y556687D01*
X580106Y561000D01*
X579681Y565312D01*
X578423Y569459D01*
X576381Y573281D01*
X573631Y576631D01*
X570281Y579381D01*
X566460Y581423D01*
X562313Y582681D01*
X558000Y583106D01*
D02*
G37*
G36*
X942500Y549500D02*
X937376D01*
X938012Y547966D01*
X939294Y546294D01*
X940965Y545012D01*
X942500Y544376D01*
Y549500D01*
D02*
G37*
%LPD*%
D25*
X725000Y413000D02*
X764000D01*
X820000Y357000D01*
Y350000D02*
Y357000D01*
X749000Y397000D02*
X760000D01*
X820000Y337000D01*
X807750Y323750D02*
X819750D01*
X820000Y324000D01*
X833000Y312000D02*
Y358000D01*
X831000Y360000D02*
X833000Y358000D01*
X729000Y402500D02*
X807750Y323750D01*
D29*
X1353000Y294000D02*
D03*
X1323000Y295000D02*
D03*
X1293000D02*
D03*
X1663000Y297000D02*
D03*
X1610000D02*
D03*
X1637000Y324000D02*
D03*
D30*
X1105000Y477000D02*
D03*
D31*
X790000Y315500D02*
D03*
X720000D02*
D03*
X777500Y290500D02*
D03*
X732500D02*
D03*
X894000Y641500D02*
D03*
X964000D02*
D03*
X906500Y666500D02*
D03*
X951500D02*
D03*
X1022000Y641500D02*
D03*
X1092000D02*
D03*
X1034500Y666500D02*
D03*
X1079500D02*
D03*
X819000Y293000D02*
D03*
Y406000D02*
D03*
X890000Y481000D02*
D03*
X1039000Y477000D02*
D03*
D32*
X654300Y300000D02*
D03*
X679700D02*
D03*
X598300D02*
D03*
X623700D02*
D03*
X805401Y564199D02*
D03*
X756600D02*
D03*
X538300Y301000D02*
D03*
X563700D02*
D03*
X480300Y302000D02*
D03*
X505700D02*
D03*
X389000Y571700D02*
D03*
Y546300D02*
D03*
Y628700D02*
D03*
Y603300D02*
D03*
D33*
X832200Y449000D02*
D03*
X857600D02*
D03*
X1570400Y332000D02*
D03*
D34*
X883000Y449000D02*
D03*
X1545000Y332000D02*
D03*
D35*
X558000Y561000D02*
D03*
Y619000D02*
D03*
Y672000D02*
D03*
D36*
X1388000Y294000D02*
D03*
X1258000D02*
D03*
D37*
X680500Y395000D02*
D03*
X698000Y373000D02*
D03*
X1050000Y557000D02*
D03*
X945000Y552000D02*
D03*
X847000Y477000D02*
D03*
X427000Y595000D02*
D03*
X415000Y503000D02*
D03*
X584000Y340000D02*
D03*
X526000Y341000D02*
D03*
X725000Y413000D02*
D03*
X831000Y360000D02*
D03*
X749000Y397000D02*
D03*
X591000Y519000D02*
D03*
X593000Y584000D02*
D03*
X599000Y670000D02*
D03*
X735000Y546000D02*
D03*
X699000Y649000D02*
D03*
X1251100Y334511D02*
D03*
X854000Y388000D02*
D03*
X820000Y350000D02*
D03*
Y338000D02*
D03*
Y324000D02*
D03*
X833000Y312000D02*
D03*
X642000Y345000D02*
D03*
X715000Y561000D02*
D03*
X813000Y600000D02*
D03*
X767000Y610000D02*
D03*
X480000Y364000D02*
D03*
X832000Y507000D02*
D03*
X1114000Y310000D02*
D03*
X661000Y269000D02*
D03*
X1126000Y600000D02*
D03*
X991000Y647000D02*
D03*
X1113000Y367000D02*
D03*
X729000Y402500D02*
D03*
M02*
