%FSLAX44Y44*%
%MOMM*%
G71*
G01*
G75*
G04 Layer_Physical_Order=1*
G04 Layer_Color=255*
G04:AMPARAMS|DCode=10|XSize=1.65mm|YSize=1.4mm|CornerRadius=0.175mm|HoleSize=0mm|Usage=FLASHONLY|Rotation=180.000|XOffset=0mm|YOffset=0mm|HoleType=Round|Shape=RoundedRectangle|*
%AMROUNDEDRECTD10*
21,1,1.6500,1.0500,0,0,180.0*
21,1,1.3000,1.4000,0,0,180.0*
1,1,0.3500,-0.6500,0.5250*
1,1,0.3500,0.6500,0.5250*
1,1,0.3500,0.6500,-0.5250*
1,1,0.3500,-0.6500,-0.5250*
%
%ADD10ROUNDEDRECTD10*%
%ADD11R,1.3000X0.9000*%
%ADD12R,0.9000X1.3000*%
%ADD13R,2.0000X3.0000*%
G04:AMPARAMS|DCode=14|XSize=1mm|YSize=1.25mm|CornerRadius=0.25mm|HoleSize=0mm|Usage=FLASHONLY|Rotation=180.000|XOffset=0mm|YOffset=0mm|HoleType=Round|Shape=RoundedRectangle|*
%AMROUNDEDRECTD14*
21,1,1.0000,0.7500,0,0,180.0*
21,1,0.5000,1.2500,0,0,180.0*
1,1,0.5000,-0.2500,0.3750*
1,1,0.5000,0.2500,0.3750*
1,1,0.5000,0.2500,-0.3750*
1,1,0.5000,-0.2500,-0.3750*
%
%ADD14ROUNDEDRECTD14*%
G04:AMPARAMS|DCode=15|XSize=1mm|YSize=1.25mm|CornerRadius=0.25mm|HoleSize=0mm|Usage=FLASHONLY|Rotation=90.000|XOffset=0mm|YOffset=0mm|HoleType=Round|Shape=RoundedRectangle|*
%AMROUNDEDRECTD15*
21,1,1.0000,0.7500,0,0,90.0*
21,1,0.5000,1.2500,0,0,90.0*
1,1,0.5000,0.3750,0.2500*
1,1,0.5000,0.3750,-0.2500*
1,1,0.5000,-0.3750,-0.2500*
1,1,0.5000,-0.3750,0.2500*
%
%ADD15ROUNDEDRECTD15*%
%ADD16R,0.7000X1.3000*%
%ADD17O,0.3000X1.8000*%
%ADD18O,1.8000X0.3000*%
%ADD19O,3.0000X0.8000*%
%ADD20R,3.0000X0.8000*%
G04:AMPARAMS|DCode=21|XSize=3mm|YSize=1.1mm|CornerRadius=0.275mm|HoleSize=0mm|Usage=FLASHONLY|Rotation=90.000|XOffset=0mm|YOffset=0mm|HoleType=Round|Shape=RoundedRectangle|*
%AMROUNDEDRECTD21*
21,1,3.0000,0.5500,0,0,90.0*
21,1,2.4500,1.1000,0,0,90.0*
1,1,0.5500,0.2750,1.2250*
1,1,0.5500,0.2750,-1.2250*
1,1,0.5500,-0.2750,-1.2250*
1,1,0.5500,-0.2750,1.2250*
%
%ADD21ROUNDEDRECTD21*%
%ADD22R,0.6000X2.1500*%
G04:AMPARAMS|DCode=23|XSize=1.65mm|YSize=1.4mm|CornerRadius=0.175mm|HoleSize=0mm|Usage=FLASHONLY|Rotation=90.000|XOffset=0mm|YOffset=0mm|HoleType=Round|Shape=RoundedRectangle|*
%AMROUNDEDRECTD23*
21,1,1.6500,1.0500,0,0,90.0*
21,1,1.3000,1.4000,0,0,90.0*
1,1,0.3500,0.5250,0.6500*
1,1,0.3500,0.5250,-0.6500*
1,1,0.3500,-0.5250,-0.6500*
1,1,0.3500,-0.5250,0.6500*
%
%ADD23ROUNDEDRECTD23*%
%ADD24C,1.5000*%
%ADD25C,0.5000*%
%ADD26C,0.3000*%
%ADD27C,1.0000*%
%ADD28C,0.7000*%
%ADD29C,2.2000*%
%ADD30C,9.0000*%
%ADD31C,2.0000*%
%ADD32C,1.6000*%
%ADD33C,1.5000*%
%ADD34R,1.5000X1.5000*%
%ADD35C,4.0000*%
%ADD36C,2.5000*%
%ADD37C,0.6000*%
D10*
X619750Y669000D02*
D03*
X650250D02*
D03*
X1047250Y528000D02*
D03*
X1016750D02*
D03*
X914750Y449000D02*
D03*
X945250D02*
D03*
D11*
X706000Y620500D02*
D03*
Y601500D02*
D03*
X688000Y668500D02*
D03*
Y649500D02*
D03*
X712000Y668500D02*
D03*
Y649500D02*
D03*
X1114000Y277500D02*
D03*
Y296500D02*
D03*
X841000Y517500D02*
D03*
Y536500D02*
D03*
X821000Y517500D02*
D03*
Y536500D02*
D03*
X743000Y342500D02*
D03*
Y361500D02*
D03*
X750000Y600500D02*
D03*
Y619500D02*
D03*
X841000Y415500D02*
D03*
Y396500D02*
D03*
X991000Y676500D02*
D03*
Y657500D02*
D03*
X1113000Y399500D02*
D03*
Y380500D02*
D03*
D12*
X843500Y601000D02*
D03*
X824500D02*
D03*
X699500Y430000D02*
D03*
X680500D02*
D03*
X699500Y405000D02*
D03*
X680500D02*
D03*
X941500Y599000D02*
D03*
X960500D02*
D03*
X1073500Y601000D02*
D03*
X1092500D02*
D03*
X781500Y600000D02*
D03*
X800500D02*
D03*
X650500Y519000D02*
D03*
X631500D02*
D03*
X650500Y551000D02*
D03*
X669500D02*
D03*
X686500Y554000D02*
D03*
X705500D02*
D03*
X693500Y269000D02*
D03*
X674500D02*
D03*
X1158500Y600000D02*
D03*
X1139500D02*
D03*
D13*
X741000Y661000D02*
D03*
X789000D02*
D03*
X986000Y504000D02*
D03*
X938000D02*
D03*
D14*
X687000Y578000D02*
D03*
X707000D02*
D03*
X767000Y343000D02*
D03*
X787000D02*
D03*
X917000Y599000D02*
D03*
X897000D02*
D03*
X1053000Y601000D02*
D03*
X1033000D02*
D03*
X395000Y515000D02*
D03*
X415000D02*
D03*
D15*
X698000Y363000D02*
D03*
Y343000D02*
D03*
X930000Y552000D02*
D03*
Y572000D02*
D03*
X1036000Y557000D02*
D03*
Y577000D02*
D03*
X721000Y363000D02*
D03*
Y343000D02*
D03*
X900000Y553000D02*
D03*
Y573000D02*
D03*
X1010000Y557000D02*
D03*
Y577000D02*
D03*
X655000Y325000D02*
D03*
Y345000D02*
D03*
X597000Y325000D02*
D03*
Y345000D02*
D03*
X539000Y328000D02*
D03*
Y348000D02*
D03*
X480000Y329000D02*
D03*
Y349000D02*
D03*
X427000Y626000D02*
D03*
Y606000D02*
D03*
X681000Y601000D02*
D03*
Y621000D02*
D03*
X672000Y507000D02*
D03*
Y527000D02*
D03*
D16*
X837500Y477000D02*
D03*
X818500D02*
D03*
D17*
X779500Y517500D02*
D03*
X774500D02*
D03*
X769500D02*
D03*
X764500D02*
D03*
X759500D02*
D03*
X754500D02*
D03*
X749500D02*
D03*
X744500D02*
D03*
X739500D02*
D03*
X734500D02*
D03*
X729500D02*
D03*
X724500D02*
D03*
Y436500D02*
D03*
X729500D02*
D03*
X734500D02*
D03*
X739500D02*
D03*
X744500D02*
D03*
X749500D02*
D03*
X754500D02*
D03*
X759500D02*
D03*
X764500D02*
D03*
X769500D02*
D03*
X774500D02*
D03*
X779500D02*
D03*
D18*
X711500Y504500D02*
D03*
Y499500D02*
D03*
Y494500D02*
D03*
Y489500D02*
D03*
Y484500D02*
D03*
Y479500D02*
D03*
Y474500D02*
D03*
Y469500D02*
D03*
Y464500D02*
D03*
Y459500D02*
D03*
Y454500D02*
D03*
Y449500D02*
D03*
X792500D02*
D03*
Y454500D02*
D03*
Y459500D02*
D03*
Y464500D02*
D03*
Y469500D02*
D03*
Y474500D02*
D03*
Y479500D02*
D03*
Y484500D02*
D03*
Y489500D02*
D03*
Y494500D02*
D03*
Y499500D02*
D03*
Y504500D02*
D03*
D19*
X880000Y312100D02*
D03*
Y324800D02*
D03*
Y337500D02*
D03*
Y350200D02*
D03*
Y362900D02*
D03*
Y375600D02*
D03*
Y388300D02*
D03*
D20*
Y401000D02*
D03*
D21*
X995000Y297000D02*
D03*
D22*
X614950Y585750D02*
D03*
X627650D02*
D03*
X640350D02*
D03*
X653050D02*
D03*
X614950Y634250D02*
D03*
X627650D02*
D03*
X640350D02*
D03*
X653050D02*
D03*
D23*
X1209000Y318250D02*
D03*
Y287750D02*
D03*
X611000Y518750D02*
D03*
Y549250D02*
D03*
D24*
X1323000Y296000D02*
Y307000D01*
X1356000Y340000D01*
X1537000D01*
X1353000Y278000D02*
Y287000D01*
X860000Y687000D02*
X917000D01*
X817001D02*
X860000D01*
X1169000Y321500D02*
X1202750Y287750D01*
X791000Y661000D02*
X817001Y687000D01*
X917000D02*
X1017000D01*
X1209000Y318250D02*
X1225262Y334511D01*
X1251100D01*
X1537000Y340000D02*
X1545000Y332000D01*
X796000Y270000D02*
X1185000D01*
X1202750Y287750D01*
X701000Y269000D02*
X797000D01*
X1209000Y287750D02*
X1226750Y270000D01*
X1274000D01*
X1292000Y288000D01*
X1353000Y278000D02*
X1362000Y269000D01*
X1579000D01*
X1606500Y296500D01*
X1022000Y687000D02*
X1147000D01*
X1169000Y665000D01*
Y321500D02*
Y410000D01*
Y665000D01*
X986000Y488000D02*
X989000Y485000D01*
Y483000D02*
Y485000D01*
Y483000D02*
X1062000Y410000D01*
X1169000D01*
X991000Y504000D02*
X1015000Y528000D01*
X1016750D01*
D25*
X683000Y323000D02*
X701000Y305000D01*
X683000Y323000D02*
Y378000D01*
X552000Y614000D02*
X645000D01*
X794000Y387000D02*
X831000D01*
X484800Y484500D02*
X686000D01*
X423000Y546300D02*
X484800Y484500D01*
X699500Y394500D02*
Y405000D01*
X683000Y378000D02*
X699500Y394500D01*
X739500Y361500D02*
X743000D01*
X721000Y343000D02*
X739500Y361500D01*
X787000Y338000D02*
Y343000D01*
X767000Y318000D02*
X787000Y338000D01*
X767000Y293000D02*
Y318000D01*
Y293000D02*
X769500Y290500D01*
X766500Y342500D02*
X767000Y343000D01*
X743000Y342500D02*
X766500D01*
X698000Y343000D02*
X721000D01*
X737000Y327000D01*
Y287000D02*
Y327000D01*
X864500Y489500D02*
X909000Y534000D01*
X1034500Y669500D02*
X1045000Y659000D01*
Y625000D02*
Y659000D01*
X1033000Y613000D02*
X1045000Y625000D01*
X1033000Y601000D02*
Y613000D01*
X1092500Y601000D02*
Y604500D01*
X1067000Y630000D02*
X1092500Y604500D01*
X1067000Y630000D02*
Y657000D01*
X1079500Y669500D01*
X1053000Y601000D02*
X1053000Y601000D01*
X1073500D01*
X1092500Y586500D02*
Y601000D01*
X1083000Y577000D02*
X1092500Y586500D01*
X1036000Y577000D02*
X1083000D01*
X1010000Y577000D02*
X1036000D01*
X1036000Y577000D01*
X880000Y553000D02*
X900000D01*
X960500Y584500D02*
Y599000D01*
X948000Y572000D02*
X960500Y584500D01*
X930000Y572000D02*
X948000D01*
X929000Y573000D02*
X930000Y572000D01*
X900000Y573000D02*
X929000D01*
X941500Y599000D02*
X941500Y599000D01*
X917000Y599000D02*
X941500D01*
X906500Y667500D02*
X918000Y656000D01*
Y628000D02*
Y656000D01*
X897000Y607000D02*
X918000Y628000D01*
X897000Y599000D02*
Y607000D01*
X960500Y599000D02*
Y611500D01*
X941000Y631000D02*
X960500Y611500D01*
X941000Y631000D02*
Y657000D01*
X951500Y667500D01*
X735500Y668500D02*
X743000Y661000D01*
X688000Y668500D02*
X712000D01*
X640350Y657100D02*
X649250Y666000D01*
X640350Y634250D02*
Y657100D01*
X715000Y395000D02*
X721000Y389000D01*
Y363000D02*
Y389000D01*
X680500Y405000D02*
Y430000D01*
X699500Y405000D02*
Y430000D01*
X715000Y395000D02*
Y417500D01*
X374700Y571700D02*
X389000D01*
X366000Y563000D02*
X374700Y571700D01*
X366000Y529000D02*
Y563000D01*
Y529000D02*
X380000Y515000D01*
X395000D01*
X389000Y628700D02*
X424300D01*
X654300Y319300D02*
X655000Y320000D01*
X654300Y296000D02*
Y319300D01*
X598300Y295000D02*
Y323000D01*
X538300Y300000D02*
Y329000D01*
X480300Y296000D02*
Y328000D01*
X627650Y634250D02*
Y657100D01*
X618750Y666000D02*
X627650Y657100D01*
X682000Y621000D02*
X708500D01*
X709000Y621500D01*
X653050Y622050D02*
Y634250D01*
X645000Y614000D02*
X653050Y622050D01*
X389000Y546300D02*
X423000D01*
X389000Y603300D02*
X498000Y494300D01*
X689700D01*
X726000Y542000D02*
Y554000D01*
X628000Y380000D02*
Y448000D01*
X685500Y671000D02*
X688000Y668500D01*
X562000Y676000D02*
Y678000D01*
Y676000D02*
X603750Y634250D01*
X614950D01*
X831000Y387000D02*
X842000Y376000D01*
X879000D01*
X841000Y363000D02*
X879000D01*
X820000Y350000D02*
X879000D01*
X820000Y338000D02*
X879000D01*
X820000Y324000D02*
X879000D01*
X833000Y312000D02*
X870100D01*
X505700Y302000D02*
Y345700D01*
X527000Y367000D01*
X615000D01*
X628000Y380000D01*
X563700Y301000D02*
Y348700D01*
X572000Y357000D01*
X664000Y363000D02*
Y441000D01*
Y363000D02*
X671000Y356000D01*
X572000Y357000D02*
X621000D01*
X640000Y376000D01*
Y446000D01*
X623700Y296000D02*
Y343700D01*
X652000Y372000D01*
Y443000D01*
X671000Y308000D02*
Y356000D01*
Y308000D02*
X680000Y299000D01*
X701000Y269000D02*
Y305000D01*
X769500Y290500D02*
X777500D01*
X653050Y634250D02*
X675750D01*
X682000Y621000D02*
Y628000D01*
X675750Y634250D02*
X682000Y628000D01*
X653050Y585750D02*
Y594050D01*
X661000Y602000D01*
X680000D01*
X681000Y601000D01*
X706500D01*
X707000Y601500D01*
Y578000D02*
Y601500D01*
X687000Y554500D02*
Y578000D01*
X686500Y554000D02*
X687000Y554500D01*
X658500Y527000D02*
X672000D01*
X650500Y519000D02*
X658500Y527000D01*
X627650Y565900D02*
Y585750D01*
X611000Y549250D02*
X627650Y565900D01*
X640350Y561150D02*
Y585750D01*
Y561150D02*
X650500Y551000D01*
X669500Y529500D02*
Y551000D01*
Y529500D02*
X672000Y527000D01*
X875000Y548000D02*
X880000Y553000D01*
X875000Y517000D02*
Y548000D01*
X726000Y554000D02*
X728000Y556000D01*
X734000Y652000D02*
X743000Y661000D01*
X734000Y646000D02*
Y652000D01*
X756600Y564199D02*
X781500Y589099D01*
Y600000D01*
X805401Y564199D02*
X819199D01*
X843000Y588000D01*
Y599500D01*
X843500Y600000D01*
X808000Y511000D02*
Y530000D01*
X821000Y536500D02*
X840000D01*
X814500D02*
X821000D01*
X808000Y530000D02*
X814500Y536500D01*
X783000Y531000D02*
X808000D01*
X814000Y502000D02*
X819000Y507000D01*
X832000D01*
X987001Y534000D02*
X1010000Y557000D01*
X909000Y534000D02*
X987001D01*
X849500Y388000D02*
X854000D01*
X841000Y396500D02*
X849500Y388000D01*
X854000D02*
X856000D01*
X869000Y401000D02*
X880000D01*
X854500Y415500D02*
X869000Y401000D01*
X841000Y415500D02*
X854500D01*
X812000Y421000D02*
X822500Y431500D01*
X840099D01*
X857600Y449000D01*
X880000Y401000D02*
X903000D01*
X799000Y361000D02*
X830000D01*
X795000Y375000D02*
X829000D01*
X841000Y363000D01*
D26*
X754500Y426500D02*
X794000Y387000D01*
X686000Y484500D02*
X711500D01*
X792500Y489500D02*
X864500D01*
X1010000Y577000D02*
X1036000D01*
X813000Y477000D02*
X818500D01*
X805500Y484500D02*
X813000Y477000D01*
X792500Y484500D02*
X805500D01*
X769500Y424500D02*
X773000Y421000D01*
X769500Y424500D02*
Y436500D01*
X680500Y430000D02*
Y443500D01*
X691500Y454500D01*
X711500D01*
X699500Y430000D02*
Y446500D01*
X702500Y449500D01*
X711500D01*
X715000Y417500D02*
X724500Y427000D01*
Y436500D01*
X725750Y413750D02*
X729500Y417500D01*
Y436500D01*
X725750Y412250D02*
Y413750D01*
X744500Y415500D02*
Y436500D01*
X749500Y420500D02*
Y436500D01*
X754500Y426500D02*
Y436500D01*
X689700Y494300D02*
X694500Y489500D01*
X711500D01*
X694500Y499500D02*
X711500D01*
X688500Y505500D02*
X694500Y499500D01*
X671000Y505500D02*
X688500D01*
X735000Y546000D02*
X744500Y536500D01*
Y517500D02*
Y536500D01*
X739500Y517500D02*
Y528500D01*
X726000Y542000D02*
X739500Y528500D01*
X664000Y441000D02*
X682500Y459500D01*
X711500D01*
X652000Y443000D02*
X673500Y464500D01*
X711500D01*
X640000Y446000D02*
X663500Y469500D01*
X711500D01*
X628000Y448000D02*
X654500Y474500D01*
X711500D01*
X792500Y449500D02*
X830000D01*
X792500Y494500D02*
X852500D01*
X875000Y517000D01*
X759500Y517500D02*
Y528500D01*
X795199Y564199D01*
X805401D01*
X749500Y517500D02*
Y546500D01*
X743000Y553000D02*
X749500Y546500D01*
X743000Y553000D02*
Y593500D01*
X750000Y600500D01*
X754500Y517500D02*
Y564199D01*
X792500Y504500D02*
X801500D01*
X792500Y499500D02*
X811500D01*
X814000Y502000D01*
X801500Y504500D02*
X808000Y511000D01*
X779500Y517500D02*
Y527000D01*
X779500Y527500D02*
X783000Y531000D01*
X779500Y527000D02*
X779500Y527000D01*
X779500Y527000D02*
Y527500D01*
X773000Y421000D02*
X812000D01*
X744500Y415500D02*
X799000Y361000D01*
X830000D02*
X831000Y360000D01*
X749500Y420500D02*
X795000Y375000D01*
X739500Y406500D02*
X749000Y397000D01*
X739500Y406500D02*
Y436500D01*
X729000Y402500D02*
X734500Y408000D01*
X734500D02*
X734500D01*
X734500D02*
Y436500D01*
D27*
X698000Y373000D02*
X698000Y373000D01*
X698000Y363000D02*
Y373000D01*
X680500Y394000D02*
Y405000D01*
X1051000Y557000D02*
X1051000Y557000D01*
X930000Y552000D02*
X946000D01*
X839000Y477000D02*
X848000D01*
X1017000Y687000D02*
X1022000D01*
X1017000D02*
X1034500Y669500D01*
X906500Y676500D02*
X917000Y687000D01*
X906500Y667500D02*
Y676500D01*
X1202750Y287750D02*
X1209000D01*
X712000Y668500D02*
X735500D01*
X415000Y503000D02*
Y515000D01*
X427000Y595000D02*
Y606000D01*
X584000Y340000D02*
X584000Y340000D01*
X585000D01*
X526000Y341000D02*
X533000Y348000D01*
X591000Y519000D02*
X591750Y519750D01*
X594750Y585750D02*
X613000D01*
X593000Y584000D02*
X594750Y585750D01*
X603000Y666000D02*
X618750D01*
X599000Y670000D02*
X603000Y666000D01*
X688000Y649500D02*
X712000D01*
X654250Y671000D02*
X685500D01*
X559000Y559000D02*
Y617000D01*
X585000Y340000D02*
X590500Y345500D01*
X642435Y345000D02*
X655000D01*
X642217Y344782D02*
X642435Y345000D01*
X776500Y289500D02*
X796000Y270000D01*
X591000Y519000D02*
X631500D01*
X705500Y554000D02*
X708000D01*
X715000Y561000D01*
X860000Y562000D02*
Y687000D01*
X728000Y556000D02*
Y640000D01*
X734000Y646000D01*
X750000Y619500D02*
X757500D01*
X767000Y610000D01*
X800500Y600000D02*
X824500D01*
X480000Y349000D02*
X480000Y349000D01*
X480000Y349000D02*
Y364000D01*
X840000Y542000D02*
X860000Y562000D01*
X821000Y517500D02*
X832000D01*
Y507000D02*
Y517500D01*
X903000Y401000D02*
X945250Y443250D01*
Y449000D01*
X883000Y449000D02*
X914750D01*
X914750Y449000D01*
X1047250Y528000D02*
Y554250D01*
X1050000Y557000D01*
X1050000Y557000D01*
X1036000Y557000D02*
X1050000D01*
X1051000D01*
X1114000Y296500D02*
Y310000D01*
X661000Y269000D02*
X674500D01*
X1125000Y600000D02*
X1139500D01*
X991000Y646000D02*
Y657500D01*
X1113000Y366000D02*
Y380500D01*
X938000Y492000D02*
X942000D01*
X945250Y488750D01*
Y449000D02*
Y488750D01*
D28*
X856000Y388000D02*
X879000D01*
D29*
X1353000Y294000D02*
D03*
X1323000Y295000D02*
D03*
X1293000D02*
D03*
X1663000Y297000D02*
D03*
X1610000D02*
D03*
X1637000Y324000D02*
D03*
D30*
X1105000Y477000D02*
D03*
D31*
X790000Y315500D02*
D03*
X720000D02*
D03*
X777500Y290500D02*
D03*
X732500D02*
D03*
X894000Y641500D02*
D03*
X964000D02*
D03*
X906500Y666500D02*
D03*
X951500D02*
D03*
X1022000Y641500D02*
D03*
X1092000D02*
D03*
X1034500Y666500D02*
D03*
X1079500D02*
D03*
X819000Y293000D02*
D03*
Y406000D02*
D03*
X890000Y481000D02*
D03*
X1039000Y477000D02*
D03*
D32*
X654300Y300000D02*
D03*
X679700D02*
D03*
X598300D02*
D03*
X623700D02*
D03*
X805401Y564199D02*
D03*
X756600D02*
D03*
X538300Y301000D02*
D03*
X563700D02*
D03*
X480300Y302000D02*
D03*
X505700D02*
D03*
X389000Y571700D02*
D03*
Y546300D02*
D03*
Y628700D02*
D03*
Y603300D02*
D03*
D33*
X832200Y449000D02*
D03*
X857600D02*
D03*
X1570400Y332000D02*
D03*
D34*
X883000Y449000D02*
D03*
X1545000Y332000D02*
D03*
D35*
X558000Y561000D02*
D03*
Y619000D02*
D03*
Y672000D02*
D03*
D36*
X1388000Y294000D02*
D03*
X1258000D02*
D03*
D37*
X680500Y395000D02*
D03*
X698000Y373000D02*
D03*
X1050000Y557000D02*
D03*
X945000Y552000D02*
D03*
X847000Y477000D02*
D03*
X427000Y595000D02*
D03*
X415000Y503000D02*
D03*
X584000Y340000D02*
D03*
X526000Y341000D02*
D03*
X725000Y413000D02*
D03*
X831000Y360000D02*
D03*
X749000Y397000D02*
D03*
X591000Y519000D02*
D03*
X593000Y584000D02*
D03*
X599000Y670000D02*
D03*
X735000Y546000D02*
D03*
X699000Y649000D02*
D03*
X1251100Y334511D02*
D03*
X854000Y388000D02*
D03*
X820000Y350000D02*
D03*
Y338000D02*
D03*
Y324000D02*
D03*
X833000Y312000D02*
D03*
X642000Y345000D02*
D03*
X715000Y561000D02*
D03*
X813000Y600000D02*
D03*
X767000Y610000D02*
D03*
X480000Y364000D02*
D03*
X832000Y507000D02*
D03*
X1114000Y310000D02*
D03*
X661000Y269000D02*
D03*
X1126000Y600000D02*
D03*
X991000Y647000D02*
D03*
X1113000Y367000D02*
D03*
X729000Y402500D02*
D03*
M02*
