M48
;Layer_Color=9474304
;FILE_FORMAT=4:4
METRIC,LZ
;TYPE=PLATED
T1F00S00C0.8000
T2F00S00C0.9000
T3F00S00C1.0000
T4F00S00C1.3208
T5F00S00C1.5000
T6F00S00C2.4000
T7F00S00C2.5000
T8F00S00C2.6000
T9F00S00C6.0000
%
T01
X00129Y003003
Y003257
X00395Y003147
Y002893
X005323Y00623
X005577
X00345Y008413
Y008667
X00276
Y008413
X00214Y008423
Y008677
X00415Y008667
Y008413
X00484Y008563
Y008817
X006163Y00854
X006417
T02
X005Y00256
X004995Y002885
X00459Y00331
X00483599Y00394999
X00532399
X00556Y00363
X0062Y00359
X00655Y00374
X008165Y003885
X00928Y005
X0078Y00535
X00722Y00507
X00702Y00492
X00696Y00474
X00675Y00472
X00681Y00451
X00646Y00562
X00525Y00564
X00509Y00509
X00494Y00518
X00471Y00523
X00454Y0058
X004608Y00613
X004354
X0041
X00398Y00492
X00522Y00431
X00527Y00697
X00551
Y00721
X00527
Y00745
X00551
Y00769
X00527
X00628Y00768
X00652
Y00744
X00628
Y0072
X00652
Y00696
X00628
X0072Y0064
X00313Y00605
X002375Y005795
Y005345
Y004885
Y004435
X001725
Y004885
Y005345
Y005795
X00383Y00399
X00189Y00819
T03
X008356Y005716
Y006224
X008864Y00597
X007789Y00891
X007535
X007281
X007027
X008043
X008297
X008551
X008805
X009059
X009313
T04
X00804Y003348
X00982
T05
X00804Y00647
X00995
X0041Y00646
X00246
Y00818
X0041Y00817
X00685Y00819
T06
X00205Y00285
X00252Y00316
T07
X007532Y003348
X00804Y00284
X008548Y003348
X009312
X00982Y00284
X010328Y003348
T08
X00205Y00344
T09
X00107Y00245
X01076
X00107Y00914
X01076
M30
