%FSLAX44Y44*%
%MOMM*%
G71*
G01*
G75*
G04 Layer_Color=32896*
%ADD10R,1.3000X0.9000*%
G04:AMPARAMS|DCode=11|XSize=1mm|YSize=1.25mm|CornerRadius=0.25mm|HoleSize=0mm|Usage=FLASHONLY|Rotation=270.000|XOffset=0mm|YOffset=0mm|HoleType=Round|Shape=RoundedRectangle|*
%AMROUNDEDRECTD11*
21,1,1.0000,0.7500,0,0,270.0*
21,1,0.5000,1.2500,0,0,270.0*
1,1,0.5000,-0.3750,-0.2500*
1,1,0.5000,-0.3750,0.2500*
1,1,0.5000,0.3750,0.2500*
1,1,0.5000,0.3750,-0.2500*
%
%ADD11ROUNDEDRECTD11*%
G04:AMPARAMS|DCode=12|XSize=1mm|YSize=1.25mm|CornerRadius=0.25mm|HoleSize=0mm|Usage=FLASHONLY|Rotation=0.000|XOffset=0mm|YOffset=0mm|HoleType=Round|Shape=RoundedRectangle|*
%AMROUNDEDRECTD12*
21,1,1.0000,0.7500,0,0,0.0*
21,1,0.5000,1.2500,0,0,0.0*
1,1,0.5000,0.2500,-0.3750*
1,1,0.5000,-0.2500,-0.3750*
1,1,0.5000,-0.2500,0.3750*
1,1,0.5000,0.2500,0.3750*
%
%ADD12ROUNDEDRECTD12*%
G04:AMPARAMS|DCode=13|XSize=3mm|YSize=2mm|CornerRadius=0.25mm|HoleSize=0mm|Usage=FLASHONLY|Rotation=0.000|XOffset=0mm|YOffset=0mm|HoleType=Round|Shape=RoundedRectangle|*
%AMROUNDEDRECTD13*
21,1,3.0000,1.5000,0,0,0.0*
21,1,2.5000,2.0000,0,0,0.0*
1,1,0.5000,1.2500,-0.7500*
1,1,0.5000,-1.2500,-0.7500*
1,1,0.5000,-1.2500,0.7500*
1,1,0.5000,1.2500,0.7500*
%
%ADD13ROUNDEDRECTD13*%
%ADD14R,0.9000X1.3000*%
%ADD15R,0.7000X1.3000*%
%ADD16R,1.3000X0.7000*%
G04:AMPARAMS|DCode=17|XSize=1.3208mm|YSize=0.6096mm|CornerRadius=0.1524mm|HoleSize=0mm|Usage=FLASHONLY|Rotation=180.000|XOffset=0mm|YOffset=0mm|HoleType=Round|Shape=RoundedRectangle|*
%AMROUNDEDRECTD17*
21,1,1.3208,0.3048,0,0,180.0*
21,1,1.0160,0.6096,0,0,180.0*
1,1,0.3048,-0.5080,0.1524*
1,1,0.3048,0.5080,0.1524*
1,1,0.3048,0.5080,-0.1524*
1,1,0.3048,-0.5080,-0.1524*
%
%ADD17ROUNDEDRECTD17*%
%ADD18R,1.2700X0.6096*%
%ADD19R,3.0000X2.0000*%
%ADD20O,1.8000X0.3000*%
%ADD21O,0.3000X1.8000*%
%ADD22R,3.6000X2.2000*%
%ADD23R,1.2190X2.2350*%
G04:AMPARAMS|DCode=24|XSize=1.3208mm|YSize=0.6096mm|CornerRadius=0.1524mm|HoleSize=0mm|Usage=FLASHONLY|Rotation=90.000|XOffset=0mm|YOffset=0mm|HoleType=Round|Shape=RoundedRectangle|*
%AMROUNDEDRECTD24*
21,1,1.3208,0.3048,0,0,90.0*
21,1,1.0160,0.6096,0,0,90.0*
1,1,0.3048,0.1524,0.5080*
1,1,0.3048,0.1524,-0.5080*
1,1,0.3048,-0.1524,-0.5080*
1,1,0.3048,-0.1524,0.5080*
%
%ADD24ROUNDEDRECTD24*%
%ADD25R,0.6096X1.2700*%
%ADD26C,0.7000*%
%ADD27C,1.0000*%
%ADD28C,0.5000*%
%ADD29C,0.3000*%
%ADD30C,1.3000*%
%ADD31C,1.5000*%
%ADD32C,0.2540*%
%ADD33P,1.6236X8X202.5*%
%ADD34C,1.5000*%
%ADD35P,1.6236X8X292.5*%
%ADD36C,2.0000*%
G04:AMPARAMS|DCode=37|XSize=1.5mm|YSize=1.5mm|CornerRadius=0.375mm|HoleSize=0mm|Usage=FLASHONLY|Rotation=270.000|XOffset=0mm|YOffset=0mm|HoleType=Round|Shape=RoundedRectangle|*
%AMROUNDEDRECTD37*
21,1,1.5000,0.7500,0,0,270.0*
21,1,0.7500,1.5000,0,0,270.0*
1,1,0.7500,-0.3750,-0.3750*
1,1,0.7500,-0.3750,0.3750*
1,1,0.7500,0.3750,0.3750*
1,1,0.7500,0.3750,-0.3750*
%
%ADD37ROUNDEDRECTD37*%
%ADD38C,4.0000*%
%ADD39C,2.5000*%
%ADD40C,5.0800*%
%ADD41R,1.5000X1.5000*%
%ADD42C,0.1270*%
%ADD43C,0.6000*%
%ADD44C,0.2500*%
%ADD45C,0.1000*%
%ADD46C,0.1250*%
%ADD47C,0.2032*%
%ADD48C,0.2000*%
D32*
X621664Y538301D02*
X619124Y535762D01*
X614046D01*
X611507Y538301D01*
Y548458D01*
X614046Y550997D01*
X619124D01*
X621664Y548458D01*
X636899Y550997D02*
X626742D01*
X636899Y540840D01*
Y538301D01*
X634360Y535762D01*
X629281D01*
X626742Y538301D01*
X641977Y548458D02*
X644516Y550997D01*
X649595D01*
X652134Y548458D01*
Y538301D01*
X649595Y535762D01*
X644516D01*
X641977Y538301D01*
Y540840D01*
X644516Y543380D01*
X652134D01*
X599664Y538301D02*
X597124Y535762D01*
X592046D01*
X589507Y538301D01*
Y548458D01*
X592046Y550997D01*
X597124D01*
X599664Y548458D01*
X604742Y538301D02*
X607281Y535762D01*
X612360D01*
X614899Y538301D01*
Y540840D01*
X612360Y543380D01*
X609820D01*
X612360D01*
X614899Y545919D01*
Y548458D01*
X612360Y550997D01*
X607281D01*
X604742Y548458D01*
X619977Y538301D02*
X622516Y535762D01*
X627595D01*
X630134Y538301D01*
Y548458D01*
X627595Y550997D01*
X622516D01*
X619977Y548458D01*
Y538301D01*
X640664Y458301D02*
X638125Y455762D01*
X633046D01*
X630507Y458301D01*
Y468458D01*
X633046Y470997D01*
X638125D01*
X640664Y468458D01*
X645742Y458301D02*
X648281Y455762D01*
X653360D01*
X655899Y458301D01*
Y460840D01*
X653360Y463380D01*
X650820D01*
X653360D01*
X655899Y465919D01*
Y468458D01*
X653360Y470997D01*
X648281D01*
X645742Y468458D01*
X671134Y470997D02*
X660977D01*
X671134Y460840D01*
Y458301D01*
X668595Y455762D01*
X663516D01*
X660977Y458301D01*
X530651Y566686D02*
X528112Y569226D01*
Y574304D01*
X530651Y576843D01*
X540808D01*
X543347Y574304D01*
Y569226D01*
X540808Y566686D01*
X530651Y561608D02*
X528112Y559069D01*
Y553990D01*
X530651Y551451D01*
X533190D01*
X535729Y553990D01*
Y556530D01*
Y553990D01*
X538269Y551451D01*
X540808D01*
X543347Y553990D01*
Y559069D01*
X540808Y561608D01*
X543347Y546373D02*
Y541295D01*
Y543834D01*
X528112D01*
X530651Y546373D01*
X486879Y475178D02*
X484340Y477718D01*
Y482796D01*
X486879Y485335D01*
X497036D01*
X499575Y482796D01*
Y477718D01*
X497036Y475178D01*
X499575Y459943D02*
Y470100D01*
X489418Y459943D01*
X486879D01*
X484340Y462482D01*
Y467561D01*
X486879Y470100D01*
X499575Y447247D02*
X484340D01*
X491957Y454865D01*
Y444708D01*
X487301Y453336D02*
X484762Y455876D01*
Y460954D01*
X487301Y463493D01*
X497458D01*
X499997Y460954D01*
Y455876D01*
X497458Y453336D01*
X499997Y438101D02*
Y448258D01*
X489840Y438101D01*
X487301D01*
X484762Y440640D01*
Y445719D01*
X487301Y448258D01*
Y433023D02*
X484762Y430484D01*
Y425405D01*
X487301Y422866D01*
X489840D01*
X492379Y425405D01*
Y427944D01*
Y425405D01*
X494919Y422866D01*
X497458D01*
X499997Y425405D01*
Y430484D01*
X497458Y433023D01*
X981379Y814839D02*
Y799604D01*
X988997D01*
X991536Y802143D01*
Y807222D01*
X988997Y809761D01*
X981379D01*
X986457D02*
X991536Y814839D01*
X1006771D02*
X996614D01*
X1006771Y804682D01*
Y802143D01*
X1004232Y799604D01*
X999153D01*
X996614Y802143D01*
X1022006Y799604D02*
X1011849D01*
Y807222D01*
X1016927Y804682D01*
X1019467D01*
X1022006Y807222D01*
Y812300D01*
X1019467Y814839D01*
X1014388D01*
X1011849Y812300D01*
X981379Y790839D02*
Y775604D01*
X988997D01*
X991536Y778143D01*
Y783222D01*
X988997Y785761D01*
X981379D01*
X986457D02*
X991536Y790839D01*
X1006771D02*
X996614D01*
X1006771Y780682D01*
Y778143D01*
X1004232Y775604D01*
X999153D01*
X996614Y778143D01*
X1022006Y775604D02*
X1016927Y778143D01*
X1011849Y783222D01*
Y788300D01*
X1014388Y790839D01*
X1019467D01*
X1022006Y788300D01*
Y785761D01*
X1019467Y783222D01*
X1011849D01*
X981379Y766839D02*
Y751604D01*
X988997D01*
X991536Y754143D01*
Y759221D01*
X988997Y761761D01*
X981379D01*
X986457D02*
X991536Y766839D01*
X1006771D02*
X996614D01*
X1006771Y756682D01*
Y754143D01*
X1004232Y751604D01*
X999153D01*
X996614Y754143D01*
X1011849Y751604D02*
X1022006D01*
Y754143D01*
X1011849Y764300D01*
Y766839D01*
X981379Y743839D02*
Y728604D01*
X988997D01*
X991536Y731143D01*
Y736221D01*
X988997Y738761D01*
X981379D01*
X986457D02*
X991536Y743839D01*
X1006771D02*
X996614D01*
X1006771Y733682D01*
Y731143D01*
X1004232Y728604D01*
X999153D01*
X996614Y731143D01*
X1011849D02*
X1014388Y728604D01*
X1019467D01*
X1022006Y731143D01*
Y733682D01*
X1019467Y736221D01*
X1022006Y738761D01*
Y741300D01*
X1019467Y743839D01*
X1014388D01*
X1011849Y741300D01*
Y738761D01*
X1014388Y736221D01*
X1011849Y733682D01*
Y731143D01*
X1014388Y736221D02*
X1019467D01*
X981379Y718839D02*
Y703604D01*
X988997D01*
X991536Y706143D01*
Y711221D01*
X988997Y713761D01*
X981379D01*
X986457D02*
X991536Y718839D01*
X1006771D02*
X996614D01*
X1006771Y708682D01*
Y706143D01*
X1004232Y703604D01*
X999153D01*
X996614Y706143D01*
X1011849Y716300D02*
X1014388Y718839D01*
X1019467D01*
X1022006Y716300D01*
Y706143D01*
X1019467Y703604D01*
X1014388D01*
X1011849Y706143D01*
Y708682D01*
X1014388Y711221D01*
X1022006D01*
X981379Y694839D02*
Y679604D01*
X988997D01*
X991536Y682143D01*
Y687222D01*
X988997Y689761D01*
X981379D01*
X986457D02*
X991536Y694839D01*
X996614Y682143D02*
X999153Y679604D01*
X1004232D01*
X1006771Y682143D01*
Y684682D01*
X1004232Y687222D01*
X1001692D01*
X1004232D01*
X1006771Y689761D01*
Y692300D01*
X1004232Y694839D01*
X999153D01*
X996614Y692300D01*
X1011849Y682143D02*
X1014388Y679604D01*
X1019467D01*
X1022006Y682143D01*
Y692300D01*
X1019467Y694839D01*
X1014388D01*
X1011849Y692300D01*
Y682143D01*
D45*
X612650Y573222D02*
X625350D01*
X612650Y576778D02*
X625350D01*
X609500Y559000D02*
X628500D01*
X609500D02*
Y591000D01*
X628500Y559000D02*
Y591000D01*
X609500D02*
X628500D01*
X590650Y573222D02*
X603350D01*
X590650Y576778D02*
X603350D01*
X587500Y559000D02*
X606500D01*
X587500D02*
Y591000D01*
X606500Y559000D02*
Y591000D01*
X587500D02*
X606500D01*
X631650Y493222D02*
X644350D01*
X631650Y496778D02*
X644350D01*
X628500Y479000D02*
X647500D01*
X628500D02*
Y511000D01*
X647500Y479000D02*
Y511000D01*
X628500D02*
X647500D01*
X554650Y561222D02*
X567350D01*
X554650Y564778D02*
X567350D01*
X551500Y547000D02*
X570500D01*
X551500D02*
Y579000D01*
X570500Y547000D02*
Y579000D01*
X551500D02*
X570500D01*
X521800Y471492D02*
Y484192D01*
X525356Y471492D02*
Y484192D01*
X507578Y468342D02*
Y487342D01*
X539578D01*
X507578Y468342D02*
X539578D01*
Y487342D01*
X522222Y449650D02*
Y462350D01*
X525778Y449650D02*
Y462350D01*
X508000Y446500D02*
Y465500D01*
X540000D01*
X508000Y446500D02*
X540000D01*
Y465500D01*
D46*
X979500Y795000D02*
X1014500D01*
X979500Y775000D02*
X1014500D01*
Y795000D01*
X979500Y775000D02*
Y795000D01*
Y843000D02*
X1014500D01*
X979500Y823000D02*
X1014500D01*
Y843000D01*
X979500Y823000D02*
Y843000D01*
Y772000D02*
X1014500D01*
X979500Y752000D02*
X1014500D01*
Y772000D01*
X979500Y752000D02*
Y772000D01*
Y747000D02*
X1014500D01*
X979500Y727000D02*
X1014500D01*
Y747000D01*
X979500Y727000D02*
Y747000D01*
Y723000D02*
X1014500D01*
X979500Y703000D02*
X1014500D01*
Y723000D01*
X979500Y703000D02*
Y723000D01*
Y819000D02*
X1014500D01*
X979500Y799000D02*
X1014500D01*
Y819000D01*
X979500Y799000D02*
Y819000D01*
M02*
