%FSLAX44Y44*%
%MOMM*%
G71*
G01*
G75*
G04 Layer_Physical_Order=1*
G04 Layer_Color=255*
%ADD10R,1.3000X0.9000*%
G04:AMPARAMS|DCode=11|XSize=1mm|YSize=1.25mm|CornerRadius=0.25mm|HoleSize=0mm|Usage=FLASHONLY|Rotation=270.000|XOffset=0mm|YOffset=0mm|HoleType=Round|Shape=RoundedRectangle|*
%AMROUNDEDRECTD11*
21,1,1.0000,0.7500,0,0,270.0*
21,1,0.5000,1.2500,0,0,270.0*
1,1,0.5000,-0.3750,-0.2500*
1,1,0.5000,-0.3750,0.2500*
1,1,0.5000,0.3750,0.2500*
1,1,0.5000,0.3750,-0.2500*
%
%ADD11ROUNDEDRECTD11*%
G04:AMPARAMS|DCode=12|XSize=1mm|YSize=1.25mm|CornerRadius=0.25mm|HoleSize=0mm|Usage=FLASHONLY|Rotation=0.000|XOffset=0mm|YOffset=0mm|HoleType=Round|Shape=RoundedRectangle|*
%AMROUNDEDRECTD12*
21,1,1.0000,0.7500,0,0,0.0*
21,1,0.5000,1.2500,0,0,0.0*
1,1,0.5000,0.2500,-0.3750*
1,1,0.5000,-0.2500,-0.3750*
1,1,0.5000,-0.2500,0.3750*
1,1,0.5000,0.2500,0.3750*
%
%ADD12ROUNDEDRECTD12*%
G04:AMPARAMS|DCode=13|XSize=3mm|YSize=2mm|CornerRadius=0.25mm|HoleSize=0mm|Usage=FLASHONLY|Rotation=0.000|XOffset=0mm|YOffset=0mm|HoleType=Round|Shape=RoundedRectangle|*
%AMROUNDEDRECTD13*
21,1,3.0000,1.5000,0,0,0.0*
21,1,2.5000,2.0000,0,0,0.0*
1,1,0.5000,1.2500,-0.7500*
1,1,0.5000,-1.2500,-0.7500*
1,1,0.5000,-1.2500,0.7500*
1,1,0.5000,1.2500,0.7500*
%
%ADD13ROUNDEDRECTD13*%
%ADD14R,0.9000X1.3000*%
%ADD15R,0.7000X1.3000*%
%ADD16R,1.3000X0.7000*%
G04:AMPARAMS|DCode=17|XSize=1.3208mm|YSize=0.6096mm|CornerRadius=0.1524mm|HoleSize=0mm|Usage=FLASHONLY|Rotation=180.000|XOffset=0mm|YOffset=0mm|HoleType=Round|Shape=RoundedRectangle|*
%AMROUNDEDRECTD17*
21,1,1.3208,0.3048,0,0,180.0*
21,1,1.0160,0.6096,0,0,180.0*
1,1,0.3048,-0.5080,0.1524*
1,1,0.3048,0.5080,0.1524*
1,1,0.3048,0.5080,-0.1524*
1,1,0.3048,-0.5080,-0.1524*
%
%ADD17ROUNDEDRECTD17*%
%ADD18R,1.2700X0.6096*%
%ADD19R,3.0000X2.0000*%
%ADD20O,1.8000X0.3000*%
%ADD21O,0.3000X1.8000*%
%ADD22R,3.6000X2.2000*%
%ADD23R,1.2190X2.2350*%
G04:AMPARAMS|DCode=24|XSize=1.3208mm|YSize=0.6096mm|CornerRadius=0.1524mm|HoleSize=0mm|Usage=FLASHONLY|Rotation=90.000|XOffset=0mm|YOffset=0mm|HoleType=Round|Shape=RoundedRectangle|*
%AMROUNDEDRECTD24*
21,1,1.3208,0.3048,0,0,90.0*
21,1,1.0160,0.6096,0,0,90.0*
1,1,0.3048,0.1524,0.5080*
1,1,0.3048,0.1524,-0.5080*
1,1,0.3048,-0.1524,-0.5080*
1,1,0.3048,-0.1524,0.5080*
%
%ADD24ROUNDEDRECTD24*%
%ADD25R,0.6096X1.2700*%
%ADD26C,0.7000*%
%ADD27C,1.0000*%
%ADD28C,0.5000*%
%ADD29C,0.3000*%
%ADD30C,1.3000*%
%ADD31C,1.5000*%
%ADD32C,0.2540*%
%ADD33P,1.6236X8X202.5*%
%ADD34C,1.5000*%
%ADD35P,1.6236X8X292.5*%
%ADD36C,2.0000*%
G04:AMPARAMS|DCode=37|XSize=1.5mm|YSize=1.5mm|CornerRadius=0.375mm|HoleSize=0mm|Usage=FLASHONLY|Rotation=270.000|XOffset=0mm|YOffset=0mm|HoleType=Round|Shape=RoundedRectangle|*
%AMROUNDEDRECTD37*
21,1,1.5000,0.7500,0,0,270.0*
21,1,0.7500,1.5000,0,0,270.0*
1,1,0.7500,-0.3750,-0.3750*
1,1,0.7500,-0.3750,0.3750*
1,1,0.7500,0.3750,0.3750*
1,1,0.7500,0.3750,-0.3750*
%
%ADD37ROUNDEDRECTD37*%
%ADD38C,4.0000*%
%ADD39C,2.5000*%
%ADD40C,5.0800*%
%ADD41R,1.5000X1.5000*%
G36*
X72324Y239508D02*
X73610Y234151D01*
X75718Y229061D01*
X78597Y224364D01*
X82175Y220175D01*
X86364Y216597D01*
X91061Y213718D01*
X95302Y211962D01*
X94912Y210000D01*
X70001D01*
X70001Y210000D01*
X70000Y210000D01*
X70000Y210000D01*
Y243566D01*
X71999Y243644D01*
X72324Y239508D01*
D02*
G37*
G36*
X373000Y215000D02*
X372070Y216222D01*
X280000D01*
Y268778D01*
X280930Y270000D01*
X307700D01*
Y259010D01*
X349700D01*
Y270000D01*
X373000D01*
Y215000D01*
D02*
G37*
G36*
X255000Y287748D02*
X256457Y287863D01*
X260803Y288906D01*
X263650Y290086D01*
X267000Y286736D01*
Y210000D01*
X119088D01*
X118698Y211962D01*
X122939Y213718D01*
X127636Y216597D01*
X131825Y220175D01*
X135403Y224364D01*
X138282Y229061D01*
X140390Y234151D01*
X141676Y239508D01*
X142108Y245000D01*
X141676Y250492D01*
X140390Y255849D01*
X138282Y260939D01*
X135403Y265636D01*
X131825Y269825D01*
X127636Y273403D01*
X122939Y276282D01*
X117849Y278390D01*
X112492Y279676D01*
X107000Y280108D01*
X101508Y279676D01*
X96151Y278390D01*
X91061Y276282D01*
X86364Y273403D01*
X82175Y269825D01*
X78597Y265636D01*
X75718Y260939D01*
X73610Y255849D01*
X72324Y250492D01*
X71999Y246356D01*
X70000Y246434D01*
Y301000D01*
X103736D01*
X112868Y291868D01*
X112868D01*
X112868Y291868D01*
X112868D01*
X112868Y291868D01*
Y291868D01*
X112868Y291868D01*
Y291868D01*
X114957Y290265D01*
X117389Y289257D01*
X120000Y288914D01*
X127000D01*
Y299000D01*
X133000D01*
Y289419D01*
X135043Y290265D01*
X137132Y291868D01*
X138735Y293957D01*
X139742Y296390D01*
X140086Y299000D01*
X140021Y299496D01*
X141340Y301000D01*
X179450D01*
X180427Y299255D01*
X179617Y297933D01*
X177906Y293803D01*
X176863Y289457D01*
X176748Y288000D01*
X233252D01*
X233137Y289457D01*
X232290Y292984D01*
X233995Y294029D01*
X235255Y292953D01*
X239067Y290617D01*
X243197Y288906D01*
X247544Y287863D01*
X249000Y287748D01*
Y316000D01*
X255000D01*
Y287748D01*
D02*
G37*
%LPC*%
G36*
X325700Y253010D02*
X307700D01*
Y242010D01*
X325700D01*
Y253010D01*
D02*
G37*
G36*
X349700D02*
X331700D01*
Y242010D01*
X349700D01*
Y253010D01*
D02*
G37*
G36*
X233252Y282000D02*
X208000D01*
Y256748D01*
X209457Y256863D01*
X213803Y257906D01*
X217933Y259617D01*
X221745Y261953D01*
X225144Y264856D01*
X228047Y268255D01*
X230383Y272067D01*
X232094Y276197D01*
X233137Y280543D01*
X233252Y282000D01*
D02*
G37*
G36*
X202000D02*
X176748D01*
X176863Y280543D01*
X177906Y276197D01*
X179617Y272067D01*
X181953Y268255D01*
X184856Y264856D01*
X188255Y261953D01*
X192067Y259617D01*
X196197Y257906D01*
X200543Y256863D01*
X202000Y256748D01*
Y282000D01*
D02*
G37*
%LPD*%
D10*
X96000Y330500D02*
D03*
Y349500D02*
D03*
X311000Y442500D02*
D03*
Y461500D02*
D03*
X313000Y582500D02*
D03*
Y563500D02*
D03*
X635000Y412500D02*
D03*
Y393500D02*
D03*
X613000Y412500D02*
D03*
Y393500D02*
D03*
X578000Y403500D02*
D03*
Y384500D02*
D03*
X880000Y432500D02*
D03*
Y451500D02*
D03*
X756000Y511500D02*
D03*
Y492500D02*
D03*
X549000Y236500D02*
D03*
Y255500D02*
D03*
X635000Y299500D02*
D03*
Y280500D02*
D03*
X624000Y235500D02*
D03*
Y254500D02*
D03*
X431000Y311500D02*
D03*
Y292500D02*
D03*
D11*
X337000Y442000D02*
D03*
Y462000D02*
D03*
X340000Y582000D02*
D03*
Y562000D02*
D03*
X173000Y857000D02*
D03*
Y837000D02*
D03*
D12*
X286000Y486000D02*
D03*
X266000D02*
D03*
X288000Y537000D02*
D03*
X268000D02*
D03*
X286000Y446000D02*
D03*
X266000D02*
D03*
X287000Y579000D02*
D03*
X267000D02*
D03*
X275000Y893000D02*
D03*
X255000D02*
D03*
X343000D02*
D03*
X323000D02*
D03*
X416000D02*
D03*
X396000D02*
D03*
D13*
X689000Y238000D02*
D03*
Y302000D02*
D03*
D14*
X545500Y583000D02*
D03*
X526500D02*
D03*
X675500Y538000D02*
D03*
X694500D02*
D03*
X478500Y644000D02*
D03*
X459500D02*
D03*
X450500Y434000D02*
D03*
X469500D02*
D03*
X503500D02*
D03*
X484500D02*
D03*
X813500Y520000D02*
D03*
X832500D02*
D03*
X857500Y517000D02*
D03*
X876500D02*
D03*
X518500Y903000D02*
D03*
X499500D02*
D03*
X601500Y360000D02*
D03*
X582500D02*
D03*
D15*
X419500Y492000D02*
D03*
X438500D02*
D03*
X857500Y482000D02*
D03*
X876500D02*
D03*
X835500Y412000D02*
D03*
X816500D02*
D03*
X832500Y495000D02*
D03*
X813500D02*
D03*
X694500Y510000D02*
D03*
X675500D02*
D03*
X779500Y412000D02*
D03*
X798500D02*
D03*
D16*
X858000Y450500D02*
D03*
Y431500D02*
D03*
X780000Y511500D02*
D03*
Y492500D02*
D03*
X573000Y255500D02*
D03*
Y236500D02*
D03*
X600000D02*
D03*
Y255500D02*
D03*
X524000Y269500D02*
D03*
Y288500D02*
D03*
X611000Y337500D02*
D03*
Y318500D02*
D03*
X612000Y279500D02*
D03*
Y298500D02*
D03*
X524000Y326500D02*
D03*
Y307500D02*
D03*
D17*
X779330Y433950D02*
D03*
Y446650D02*
D03*
Y472050D02*
D03*
Y459350D02*
D03*
X832670Y446650D02*
D03*
Y472050D02*
D03*
Y459350D02*
D03*
D18*
Y433950D02*
D03*
D19*
X544000Y880000D02*
D03*
Y832000D02*
D03*
D20*
X530500Y461500D02*
D03*
Y466500D02*
D03*
Y471500D02*
D03*
Y476500D02*
D03*
Y481500D02*
D03*
Y486500D02*
D03*
Y491500D02*
D03*
Y496500D02*
D03*
Y501500D02*
D03*
Y506500D02*
D03*
Y511500D02*
D03*
Y516500D02*
D03*
Y521500D02*
D03*
Y526500D02*
D03*
Y531500D02*
D03*
Y536500D02*
D03*
X641500D02*
D03*
Y531500D02*
D03*
Y526500D02*
D03*
Y521500D02*
D03*
Y516500D02*
D03*
Y511500D02*
D03*
Y506500D02*
D03*
Y501500D02*
D03*
Y496500D02*
D03*
Y491500D02*
D03*
Y486500D02*
D03*
Y481500D02*
D03*
Y476500D02*
D03*
Y471500D02*
D03*
Y466500D02*
D03*
Y461500D02*
D03*
D21*
X548500Y554500D02*
D03*
X553500D02*
D03*
X558500D02*
D03*
X563500D02*
D03*
X568500D02*
D03*
X573500D02*
D03*
X578500D02*
D03*
X583500D02*
D03*
X588500D02*
D03*
X593500D02*
D03*
X598500D02*
D03*
X603500D02*
D03*
X608500D02*
D03*
X613500D02*
D03*
X618500D02*
D03*
X623500D02*
D03*
Y443500D02*
D03*
X618500D02*
D03*
X613500D02*
D03*
X608500D02*
D03*
X603500D02*
D03*
X598500D02*
D03*
X593500D02*
D03*
X588500D02*
D03*
X583500D02*
D03*
X578500D02*
D03*
X573500D02*
D03*
X568500D02*
D03*
X563500D02*
D03*
X558500D02*
D03*
X553500D02*
D03*
X548500D02*
D03*
D22*
X328700Y256010D02*
D03*
D23*
X305590Y317990D02*
D03*
X328700D02*
D03*
X351810D02*
D03*
D24*
X547950Y329670D02*
D03*
X560650D02*
D03*
X586050D02*
D03*
X573350D02*
D03*
X560650Y276330D02*
D03*
X586050D02*
D03*
X573350D02*
D03*
D25*
X547950D02*
D03*
D26*
X892000Y536000D02*
X927000Y501000D01*
X848500Y536000D02*
X892000D01*
X832500Y520000D02*
X848500Y536000D01*
X555000Y363000D02*
X556000D01*
X574500Y384500D02*
X578000D01*
X556000Y366000D02*
X574500Y384500D01*
X527000Y563000D02*
X546000D01*
X462000Y583000D02*
X527500D01*
X459000Y580000D02*
X462000Y583000D01*
X338500Y563500D02*
X340000Y562000D01*
X313000Y563500D02*
X338500D01*
X311500Y584000D02*
X313000Y582500D01*
X296000Y584000D02*
X311500D01*
X291000Y579000D02*
X296000Y584000D01*
X287000Y579000D02*
X291000D01*
X172500Y579500D02*
X237500D01*
X238000Y579000D01*
X267000D01*
X279500Y563500D02*
X313000D01*
X268000Y552000D02*
X279500Y563500D01*
X268000Y537000D02*
Y552000D01*
X240000Y537000D02*
X268000D01*
X237500Y534500D02*
X240000Y537000D01*
X172500Y534500D02*
X237500D01*
X308500Y464000D02*
X311000Y461500D01*
X270000Y464000D02*
X308500D01*
X266000Y468000D02*
X270000Y464000D01*
X266000Y468000D02*
Y486000D01*
X311500Y462000D02*
X337000D01*
X311000Y461500D02*
X311500Y462000D01*
X289500Y442500D02*
X311000D01*
X286000Y446000D02*
X289500Y442500D01*
X263500Y443500D02*
X266000Y446000D01*
X237500Y443500D02*
X263500D01*
X172500D02*
X237500D01*
X263500Y488500D02*
X266000Y486000D01*
X237500Y488500D02*
X263500D01*
X172500D02*
X237500D01*
X779330Y412170D02*
Y433950D01*
Y412170D02*
X779500Y412000D01*
X832670Y472050D02*
Y494830D01*
X832500Y495000D02*
X832670Y494830D01*
X832500Y495000D02*
Y520000D01*
X586050Y276330D02*
X603830D01*
X606750Y279250D01*
X499500Y288500D02*
X524000D01*
X499000Y289000D02*
X499500Y288500D01*
X601500Y360000D02*
X603500Y358000D01*
X617000D01*
X612000Y279500D02*
X634000D01*
X635000Y280500D01*
X816500Y388500D02*
Y412000D01*
Y388500D02*
X817000Y388000D01*
X780000Y511500D02*
Y535000D01*
Y536000D01*
X693500Y539000D02*
X694500Y538000D01*
X319000Y910000D02*
X323000Y906000D01*
Y893000D02*
Y906000D01*
X173000Y857000D02*
X186000D01*
X198000Y869000D01*
X212700D01*
X214000Y867700D01*
X635000Y280500D02*
X643500D01*
X654000Y291000D01*
Y374000D01*
X635000Y412500D02*
X655500D01*
X688000Y380000D01*
Y303000D02*
Y380000D01*
Y303000D02*
X689000Y302000D01*
X694500Y510000D02*
X719000D01*
X722000Y507000D01*
X484000Y881000D02*
Y887500D01*
X399000Y492000D02*
X419500D01*
X338000Y584000D02*
X340000Y582000D01*
X338000Y584000D02*
Y590000D01*
X323000Y605000D02*
X338000Y590000D01*
X316000Y605000D02*
X323000D01*
X173000Y837000D02*
X188000Y822000D01*
Y819000D02*
Y822000D01*
X337000Y442000D02*
X380000Y399000D01*
X383000D01*
X172500Y401500D02*
Y443500D01*
Y401500D02*
X174000Y400000D01*
X133500Y579500D02*
X172500D01*
X132000Y578000D02*
X133500Y579500D01*
X693500Y539000D02*
Y613500D01*
X720000Y640000D01*
D27*
X500000Y221000D02*
X672000D01*
X468000Y253000D02*
X500000Y221000D01*
X468000Y253000D02*
Y322000D01*
X459000Y331000D02*
X546620D01*
X648000Y541000D02*
Y562000D01*
X647000Y540000D02*
X648000Y541000D01*
X646000Y562000D02*
X648000D01*
X534000Y431000D02*
X544000Y441000D01*
X522000Y431000D02*
X534000D01*
X522000Y453000D02*
X527000Y458000D01*
X522000Y431000D02*
Y453000D01*
X469500Y434000D02*
X484500D01*
X439000Y457000D02*
X484500D01*
X383000Y401000D02*
X439000Y457000D01*
X672000Y221000D02*
X689000Y238000D01*
X408000Y341000D02*
X449000D01*
X349000Y400000D02*
X408000Y341000D01*
X174000Y400000D02*
X349000D01*
X449000Y341000D02*
X459000Y331000D01*
X468000Y322000D01*
X439500Y311500D02*
X459000Y331000D01*
X431000Y311500D02*
X439500D01*
X427800Y314700D02*
X431000Y311500D01*
X395000Y314700D02*
X427800D01*
X366700Y343000D02*
X395000Y314700D01*
X334000Y343000D02*
X366700D01*
X328700Y337700D02*
X334000Y343000D01*
X328700Y317990D02*
Y337700D01*
X427800Y289300D02*
X431000Y292500D01*
X395000Y289300D02*
X427800D01*
X393700Y288000D02*
X395000Y289300D01*
X343000Y288000D02*
X393700D01*
X652000Y768000D02*
Y854000D01*
X626000Y880000D02*
X652000Y854000D01*
X544000Y880000D02*
X626000D01*
X505000Y831000D02*
X543000D01*
X424000Y912000D02*
X505000Y831000D01*
X390000Y912000D02*
X424000D01*
X532300Y623000D02*
Y649700D01*
X525000Y657000D02*
X532300Y649700D01*
X525000Y657000D02*
Y695000D01*
X527000Y697000D01*
X505000Y623000D02*
X532300D01*
X484000Y644000D02*
X505000Y623000D01*
X478500Y644000D02*
X484000D01*
X96000Y323000D02*
Y330500D01*
Y323000D02*
X120000Y299000D01*
X289000Y357000D02*
X305590Y340410D01*
X218000Y357000D02*
X289000D01*
X205000Y344000D02*
X218000Y357000D01*
X120000Y299000D02*
X130000D01*
X281000Y287000D02*
X342000D01*
X343000Y288000D01*
X351810Y296810D01*
X252000Y316000D02*
X281000Y287000D01*
X351810Y296810D02*
Y317990D01*
X305590D02*
Y340410D01*
X613000Y393500D02*
X635000D01*
X613000Y412500D02*
X635000D01*
X255000Y893000D02*
Y905000D01*
X260000Y910000D01*
X319000D01*
X388000D01*
X396000Y893000D02*
Y902000D01*
X388000Y910000D02*
X396000Y902000D01*
X255000Y883300D02*
Y893000D01*
X214000Y842300D02*
X255000Y883300D01*
X635000Y393500D02*
X654000Y374500D01*
Y374000D02*
Y374500D01*
X738200Y269000D02*
X804000Y334800D01*
X664000Y269000D02*
X738200D01*
X649500Y254500D02*
X664000Y269000D01*
X624000Y254500D02*
X649500D01*
X835600Y571600D02*
X839200Y568000D01*
X891000D01*
X876500Y517000D02*
X982000Y411500D01*
Y334800D02*
Y411500D01*
X518500Y903000D02*
X521000D01*
X544000Y880000D01*
X484000Y887500D02*
X499500Y903000D01*
X478500Y644000D02*
Y766500D01*
X543000Y831000D01*
X441000Y644000D02*
X459500D01*
X410000Y613000D02*
Y613000D01*
X441000Y644000D01*
X891000Y568000D02*
X907000Y584000D01*
Y889900D01*
X905900Y891000D02*
X907000Y889900D01*
X383000Y399000D02*
Y401000D01*
X689000Y238000D02*
X869000D01*
X890000Y259000D01*
Y359000D01*
X882000Y367000D02*
X890000Y359000D01*
X789000Y367000D02*
X882000D01*
X779500Y376500D02*
X789000Y367000D01*
X779500Y376500D02*
Y412000D01*
X132000Y427000D02*
X159000Y400000D01*
X132000Y614000D02*
X214000Y696000D01*
Y842300D01*
X159000Y400000D02*
X174000D01*
X132000Y427000D02*
Y578000D01*
Y614000D01*
X388000Y910000D02*
X390000Y912000D01*
D28*
X691000Y436000D02*
X722000Y467000D01*
X671000Y436000D02*
X691000D01*
X658000Y449000D02*
X671000Y436000D01*
X658000Y449000D02*
Y461000D01*
X722000Y467000D02*
Y507000D01*
X549000Y597000D02*
X558500Y587500D01*
X509000Y597000D02*
X549000D01*
X480000Y626000D02*
X509000Y597000D01*
X549000Y606000D02*
X559000D01*
X545700Y609300D02*
X549000Y606000D01*
X492500Y465000D02*
X496000D01*
X484500Y457000D02*
X492500Y465000D01*
X449250Y427750D02*
X453000Y431500D01*
X449250Y427750D02*
X482001Y394999D01*
X483599D01*
X545700Y609300D02*
Y669300D01*
X539000Y676000D02*
X545700Y669300D01*
X539000Y676000D02*
Y707000D01*
X527000Y719000D02*
X539000Y707000D01*
X527000Y719000D02*
Y721000D01*
X454000Y538000D02*
X504000D01*
X471000Y523000D02*
X478000Y530000D01*
X471000Y523000D02*
X476000D01*
X503000Y530000D02*
X505000Y528000D01*
X478000Y530000D02*
X503000D01*
X466000Y510000D02*
X480000D01*
X443000Y486000D02*
X484000D01*
X448000Y528000D02*
X466000Y510000D01*
X437000Y555000D02*
X454000Y538000D01*
X460000Y502000D02*
X485000D01*
X446000Y516000D02*
X460000Y502000D01*
X455000Y494000D02*
X484000D01*
X444000Y505000D02*
X455000Y494000D01*
X391000Y505000D02*
X444000D01*
X398300Y841300D02*
X415000D01*
X389000Y832000D02*
X398300Y841300D01*
X389000Y544000D02*
Y832000D01*
X560650Y329670D02*
X573350D01*
X512000Y515000D02*
Y515000D01*
X448000Y626000D02*
X480000D01*
X437200Y615200D02*
X448000Y626000D01*
X433200Y615200D02*
X437200D01*
X358000Y538000D02*
Y592000D01*
Y538000D02*
X391000Y505000D01*
X345000Y651000D02*
X372000Y624000D01*
Y543000D02*
Y624000D01*
Y543000D02*
X399000Y516000D01*
X345000Y651000D02*
Y841300D01*
X570000Y609000D02*
Y709000D01*
X558000Y721000D02*
X570000Y709000D01*
X551000Y721000D02*
X558000D01*
X527000Y782000D02*
X535000Y790000D01*
X527000Y769000D02*
Y782000D01*
X405000Y528000D02*
X448000D01*
X389000Y544000D02*
X405000Y528000D01*
X399000Y516000D02*
X446000D01*
X388000Y478000D02*
X485000D01*
X438500Y490500D02*
X443000Y486000D01*
X371000Y495000D02*
X388000Y478000D01*
X379000Y470000D02*
X472000D01*
X363000Y486000D02*
X379000Y470000D01*
X330000Y495000D02*
X371000D01*
X288000Y537000D02*
X330000Y495000D01*
X286000Y486000D02*
X363000D01*
X504000Y423399D02*
Y433500D01*
X503500Y434000D02*
X504000Y433500D01*
Y423399D02*
X532399Y394999D01*
Y402399D02*
X554000Y424000D01*
X532399Y394999D02*
Y402399D01*
X554000Y424000D02*
X563000D01*
X557000Y407000D02*
X568000Y418000D01*
X483599Y394999D02*
X502598Y376000D01*
X563000Y424000D02*
X565000Y426000D01*
X859000Y451500D02*
X880000D01*
X858000Y450500D02*
X859000Y451500D01*
X832670Y446650D02*
X843650D01*
X847500Y450500D01*
X858000D01*
X859000Y432500D02*
X880000D01*
X858000Y431500D02*
X859000Y432500D01*
X813500Y465500D02*
Y495000D01*
Y465500D02*
X820000Y459000D01*
X820350Y459350D01*
X832670D01*
X798500Y412000D02*
Y437500D01*
X820000Y459000D01*
X835500Y412000D02*
Y426000D01*
X841000Y431500D02*
X858000D01*
X835120D02*
X841000D01*
X832670Y433950D02*
X835120Y431500D01*
X835500Y426000D02*
X841000Y431500D01*
X779330Y446650D02*
Y459350D01*
Y472050D02*
Y492330D01*
X807000Y520000D01*
X813500D01*
X857500Y482000D02*
Y517000D01*
X876500Y455000D02*
Y482000D01*
Y455000D02*
X880000Y451500D01*
X779280Y472000D02*
X779330Y472050D01*
X756000Y511500D02*
X780000D01*
X766650Y459350D02*
X779330D01*
X756000Y470000D02*
X766650Y459350D01*
X756000Y470000D02*
Y492500D01*
X549000Y253500D02*
X551000Y255500D01*
Y236500D02*
X573000D01*
Y255500D02*
X600000D01*
X560650Y256150D02*
Y276330D01*
X560000Y255500D02*
X560650Y256150D01*
X551000Y255500D02*
X560000D01*
X573000D01*
X532000Y244000D02*
X539000Y237000D01*
X546500D01*
X549000Y234500D02*
X551000Y236500D01*
X546500Y237000D02*
X549000Y234500D01*
X573350Y276330D02*
Y293650D01*
X559500Y307500D02*
X573350Y293650D01*
X524000Y307500D02*
X559500D01*
X600000Y235500D02*
X624000D01*
X540330Y276330D02*
X547950D01*
X533500Y269500D02*
X540330Y276330D01*
X524000Y269500D02*
X533500D01*
X597220Y318500D02*
X611000D01*
X586050Y329670D02*
X597220Y318500D01*
X601500Y347000D02*
Y360000D01*
Y347000D02*
X611000Y337500D01*
X573350Y329670D02*
Y350850D01*
X582500Y360000D01*
X573350Y293650D02*
X585650D01*
X591000Y299000D01*
X611500D01*
X612000Y298500D01*
X635000Y299500D02*
Y315000D01*
X611000Y318500D02*
X631500D01*
X635000Y315000D01*
X532000Y244000D02*
Y267000D01*
X541330Y276330D01*
X547950D01*
X608000Y744000D02*
X628000D01*
X652000Y680000D02*
Y696000D01*
X647000Y675000D02*
X652000Y680000D01*
X617000Y675000D02*
X647000D01*
X601000Y659000D02*
X617000Y675000D01*
X601000Y617000D02*
Y659000D01*
X652000Y744000D02*
X653000D01*
X666000Y731000D01*
X609000Y616000D02*
Y646000D01*
X627000Y664000D01*
X653000D01*
X666000Y677000D01*
Y731000D01*
X703700Y697700D02*
Y887000D01*
X611000Y605000D02*
X703700Y697700D01*
X729100Y708100D02*
Y888000D01*
X754500Y718500D02*
Y888000D01*
X624000Y588000D02*
X754500Y718500D01*
X779900Y727900D02*
Y890000D01*
X629000Y577000D02*
X779900Y727900D01*
X856100Y733100D02*
Y889000D01*
X726000Y603000D02*
X856100Y733100D01*
X726000Y527000D02*
Y603000D01*
X535000Y790000D02*
X562000D01*
X581000Y607000D02*
Y771000D01*
X562000Y790000D02*
X581000Y771000D01*
X619000Y598000D02*
X729100Y708100D01*
X604500Y393500D02*
X613000D01*
X601000Y397000D02*
X604500Y393500D01*
X601000Y397000D02*
Y421000D01*
X506000Y509000D02*
X509000D01*
X506000D02*
X512000Y515000D01*
X592000Y607000D02*
Y728000D01*
X608000Y744000D01*
X275000Y867700D02*
Y893000D01*
Y867700D02*
X276000Y866700D01*
X343000Y868700D02*
Y893000D01*
Y868700D02*
X345000Y866700D01*
X416000Y867700D02*
Y893000D01*
X415000Y866700D02*
X416000Y867700D01*
X723650Y446650D02*
X779330D01*
X705000Y428000D02*
X723650Y446650D01*
X627000Y428000D02*
X705000D01*
X886400Y597000D02*
Y696600D01*
X878000Y705000D02*
X886400Y696600D01*
X878000Y705000D02*
Y888500D01*
X880500Y891000D01*
X502598Y376000D02*
X533000D01*
X557000Y400000D01*
Y407000D01*
X437000Y555000D02*
Y589000D01*
X462000Y614000D01*
X305000Y645000D02*
X358000Y592000D01*
X305000Y645000D02*
Y812300D01*
X276000Y841300D02*
X305000Y812300D01*
X715000Y529000D02*
Y612000D01*
X805300Y702300D01*
Y892000D01*
D29*
X681000Y450000D02*
Y451000D01*
X678000Y447000D02*
X681000Y450000D01*
X678000Y447000D02*
Y450000D01*
X559000Y606000D02*
X568500Y596500D01*
X656500Y471500D02*
X678000Y450000D01*
X641500Y471500D02*
X656500D01*
X652500Y466500D02*
X658000Y461000D01*
X641500Y466500D02*
X652500D01*
X496500D02*
X517000D01*
X530500D01*
X484500Y434000D02*
X517000Y466500D01*
X505500Y536500D02*
X530500D01*
X504000Y538000D02*
X505500Y536500D01*
X499500Y496500D02*
X530500D01*
X487000Y509000D02*
X499500Y496500D01*
X481000Y509000D02*
X487000D01*
X496500Y491500D02*
X530500D01*
X493500Y486500D02*
X530500D01*
X491500Y481500D02*
X530500D01*
X491000Y482000D02*
X491500Y481500D01*
X490475Y482000D02*
X491000D01*
X487500Y476500D02*
X530500D01*
X473500Y471500D02*
X530500D01*
X512500Y516500D02*
X530500D01*
X498000Y521500D02*
X530500D01*
X558500Y554500D02*
Y587500D01*
X578500Y554500D02*
Y604500D01*
X570000Y607000D02*
X573500Y603500D01*
Y554500D02*
Y603500D01*
X568500Y554500D02*
Y596500D01*
X546500Y583000D02*
X553500Y576000D01*
Y554500D02*
Y576000D01*
X578000Y403500D02*
X578500Y404000D01*
Y443500D01*
X568000Y418000D02*
X573500Y423500D01*
Y443500D01*
X568500Y429500D02*
Y443500D01*
X565000Y426000D02*
X568500Y429500D01*
X505000Y528000D02*
X506500Y526500D01*
X530500D01*
X593500Y554500D02*
Y605500D01*
X598500Y614500D02*
X601000Y617000D01*
X603500Y554500D02*
Y610500D01*
X609000Y616000D01*
X598500Y554500D02*
Y614500D01*
X641500Y491500D02*
X701500D01*
X702000Y492000D01*
X641500Y486500D02*
X681500D01*
X694500Y473500D01*
X641500Y481500D02*
X669500D01*
X675000Y476000D01*
X608500Y554500D02*
Y602500D01*
X611000Y605000D01*
X613500Y554500D02*
Y592500D01*
X619000Y598000D01*
X618500Y554500D02*
Y582500D01*
X624000Y588000D01*
X623500Y554500D02*
Y571500D01*
X629000Y577000D01*
X641500Y531500D02*
X669000D01*
X675500Y538000D01*
X641500Y526500D02*
X712500D01*
X715000Y529000D01*
X641500Y516500D02*
X661500D01*
X669000Y509000D01*
X674500D01*
X675500Y510000D01*
X578500Y604500D02*
X581000Y607000D01*
X608500Y417000D02*
Y443500D01*
Y417000D02*
X613000Y412500D01*
X603500Y423500D02*
Y443500D01*
X601000Y421000D02*
X603500Y423500D01*
X593500Y378500D02*
Y443500D01*
X582500Y367500D02*
X593500Y378500D01*
X582500Y360000D02*
Y367500D01*
X486475Y486000D02*
X490475Y482000D01*
X486500Y501500D02*
X496500Y491500D01*
X592000Y607000D02*
X593500Y605500D01*
X641500Y521500D02*
X720500D01*
X726000Y527000D01*
X486000Y494000D02*
X493500Y486500D01*
X623500Y431500D02*
Y443500D01*
Y431500D02*
X627000Y428000D01*
D30*
X91000Y363700D02*
X129000Y325700D01*
X91000Y363700D02*
Y367000D01*
X129000Y325700D02*
X155700D01*
X174000Y344000D01*
X205000D01*
D31*
X91000Y367000D02*
Y817000D01*
X869000Y936000D02*
X904000Y901000D01*
X91000Y817000D02*
X210000Y936000D01*
X869000D01*
D32*
X486000Y478000D02*
X487500Y476500D01*
D33*
X532300Y623000D02*
D03*
X641700Y854000D02*
D03*
D34*
X557700Y623000D02*
D03*
X616300Y854000D02*
D03*
X484000Y881700D02*
D03*
X129000Y300300D02*
D03*
X395000Y289300D02*
D03*
X527000Y697000D02*
D03*
X551000Y721000D02*
D03*
X527000D02*
D03*
X551000Y745000D02*
D03*
X527000D02*
D03*
X551000Y769000D02*
D03*
X527000D02*
D03*
X532399Y394999D02*
D03*
X483599D02*
D03*
X652000Y768000D02*
D03*
X628000Y744000D02*
D03*
X652000D02*
D03*
X628000Y720000D02*
D03*
X652000D02*
D03*
X628000Y696000D02*
D03*
X652000D02*
D03*
X460800Y613000D02*
D03*
X435400D02*
D03*
X276000Y866700D02*
D03*
X345000D02*
D03*
X415000D02*
D03*
X214000Y842300D02*
D03*
X500000Y256000D02*
D03*
X681000Y451000D02*
D03*
X646000Y562000D02*
D03*
X525000Y564000D02*
D03*
X556000Y363000D02*
D03*
X459000Y331000D02*
D03*
X696000Y474000D02*
D03*
X494000Y518000D02*
D03*
X471000Y523000D02*
D03*
X509000Y509000D02*
D03*
X620000Y359000D02*
D03*
X499500Y288500D02*
D03*
X816500Y388500D02*
D03*
X780000Y535000D02*
D03*
X702000Y492000D02*
D03*
X675000Y472000D02*
D03*
X655000Y374000D02*
D03*
X722000Y507000D02*
D03*
X928000Y500000D02*
D03*
X398000Y492000D02*
D03*
X454000Y580000D02*
D03*
X313000Y605000D02*
D03*
X189000Y819000D02*
D03*
X383000Y399000D02*
D03*
X522000Y431000D02*
D03*
X720000Y640000D02*
D03*
D35*
X484000Y856300D02*
D03*
X129000Y325700D02*
D03*
X395000Y314700D02*
D03*
X276000Y841300D02*
D03*
X345000D02*
D03*
X415000D02*
D03*
X214000Y867700D02*
D03*
D36*
X702700Y891000D02*
D03*
X728100D02*
D03*
X753500D02*
D03*
X778900D02*
D03*
X804300D02*
D03*
X829700D02*
D03*
X855100D02*
D03*
X880500D02*
D03*
X905900D02*
D03*
X931300D02*
D03*
X835600Y571600D02*
D03*
X886400Y597000D02*
D03*
X835600Y622400D02*
D03*
X172500Y443500D02*
D03*
Y488500D02*
D03*
X237500D02*
D03*
Y443500D02*
D03*
Y579500D02*
D03*
Y534500D02*
D03*
X172500D02*
D03*
Y579500D02*
D03*
X1076000Y245000D02*
D03*
D37*
X551000Y697000D02*
D03*
X628000Y768000D02*
D03*
D38*
X982000Y284000D02*
D03*
X931200Y334800D02*
D03*
X1032800D02*
D03*
X804000Y284000D02*
D03*
X753200Y334800D02*
D03*
X854800D02*
D03*
D39*
X982000D02*
D03*
X804000D02*
D03*
X995000Y647000D02*
D03*
X804000D02*
D03*
X685000Y819000D02*
D03*
X410000Y817000D02*
D03*
Y646000D02*
D03*
X246000D02*
D03*
Y818000D02*
D03*
D40*
X252000Y316000D02*
D03*
X205000Y344000D02*
D03*
Y285000D02*
D03*
D41*
X410000Y613000D02*
D03*
M02*
