%FSLAX44Y44*%
%MOMM*%
G71*
G01*
G75*
G04 Layer_Color=16777215*
%ADD10R,1.3000X0.9000*%
G04:AMPARAMS|DCode=11|XSize=1mm|YSize=1.25mm|CornerRadius=0.25mm|HoleSize=0mm|Usage=FLASHONLY|Rotation=270.000|XOffset=0mm|YOffset=0mm|HoleType=Round|Shape=RoundedRectangle|*
%AMROUNDEDRECTD11*
21,1,1.0000,0.7500,0,0,270.0*
21,1,0.5000,1.2500,0,0,270.0*
1,1,0.5000,-0.3750,-0.2500*
1,1,0.5000,-0.3750,0.2500*
1,1,0.5000,0.3750,0.2500*
1,1,0.5000,0.3750,-0.2500*
%
%ADD11ROUNDEDRECTD11*%
G04:AMPARAMS|DCode=12|XSize=1mm|YSize=1.25mm|CornerRadius=0.25mm|HoleSize=0mm|Usage=FLASHONLY|Rotation=0.000|XOffset=0mm|YOffset=0mm|HoleType=Round|Shape=RoundedRectangle|*
%AMROUNDEDRECTD12*
21,1,1.0000,0.7500,0,0,0.0*
21,1,0.5000,1.2500,0,0,0.0*
1,1,0.5000,0.2500,-0.3750*
1,1,0.5000,-0.2500,-0.3750*
1,1,0.5000,-0.2500,0.3750*
1,1,0.5000,0.2500,0.3750*
%
%ADD12ROUNDEDRECTD12*%
G04:AMPARAMS|DCode=13|XSize=3mm|YSize=2mm|CornerRadius=0.25mm|HoleSize=0mm|Usage=FLASHONLY|Rotation=0.000|XOffset=0mm|YOffset=0mm|HoleType=Round|Shape=RoundedRectangle|*
%AMROUNDEDRECTD13*
21,1,3.0000,1.5000,0,0,0.0*
21,1,2.5000,2.0000,0,0,0.0*
1,1,0.5000,1.2500,-0.7500*
1,1,0.5000,-1.2500,-0.7500*
1,1,0.5000,-1.2500,0.7500*
1,1,0.5000,1.2500,0.7500*
%
%ADD13ROUNDEDRECTD13*%
%ADD14R,0.9000X1.3000*%
%ADD15R,0.7000X1.3000*%
%ADD16R,1.3000X0.7000*%
G04:AMPARAMS|DCode=17|XSize=1.3208mm|YSize=0.6096mm|CornerRadius=0.1524mm|HoleSize=0mm|Usage=FLASHONLY|Rotation=180.000|XOffset=0mm|YOffset=0mm|HoleType=Round|Shape=RoundedRectangle|*
%AMROUNDEDRECTD17*
21,1,1.3208,0.3048,0,0,180.0*
21,1,1.0160,0.6096,0,0,180.0*
1,1,0.3048,-0.5080,0.1524*
1,1,0.3048,0.5080,0.1524*
1,1,0.3048,0.5080,-0.1524*
1,1,0.3048,-0.5080,-0.1524*
%
%ADD17ROUNDEDRECTD17*%
%ADD18R,1.2700X0.6096*%
%ADD19R,3.0000X2.0000*%
%ADD20O,1.8000X0.3000*%
%ADD21O,0.3000X1.8000*%
%ADD22R,3.6000X2.2000*%
%ADD23R,1.2190X2.2350*%
G04:AMPARAMS|DCode=24|XSize=1.3208mm|YSize=0.6096mm|CornerRadius=0.1524mm|HoleSize=0mm|Usage=FLASHONLY|Rotation=90.000|XOffset=0mm|YOffset=0mm|HoleType=Round|Shape=RoundedRectangle|*
%AMROUNDEDRECTD24*
21,1,1.3208,0.3048,0,0,90.0*
21,1,1.0160,0.6096,0,0,90.0*
1,1,0.3048,0.1524,0.5080*
1,1,0.3048,0.1524,-0.5080*
1,1,0.3048,-0.1524,-0.5080*
1,1,0.3048,-0.1524,0.5080*
%
%ADD24ROUNDEDRECTD24*%
%ADD25R,0.6096X1.2700*%
%ADD26C,0.7000*%
%ADD27C,1.0000*%
%ADD28C,0.5000*%
%ADD29C,0.3000*%
%ADD30C,1.3000*%
%ADD31C,1.5000*%
%ADD32C,0.2540*%
%ADD33P,1.6236X8X202.5*%
%ADD34C,1.5000*%
%ADD35P,1.6236X8X292.5*%
%ADD36C,2.0000*%
G04:AMPARAMS|DCode=37|XSize=1.5mm|YSize=1.5mm|CornerRadius=0.375mm|HoleSize=0mm|Usage=FLASHONLY|Rotation=270.000|XOffset=0mm|YOffset=0mm|HoleType=Round|Shape=RoundedRectangle|*
%AMROUNDEDRECTD37*
21,1,1.5000,0.7500,0,0,270.0*
21,1,0.7500,1.5000,0,0,270.0*
1,1,0.7500,-0.3750,-0.3750*
1,1,0.7500,-0.3750,0.3750*
1,1,0.7500,0.3750,0.3750*
1,1,0.7500,0.3750,-0.3750*
%
%ADD37ROUNDEDRECTD37*%
%ADD38C,4.0000*%
%ADD39C,2.5000*%
%ADD40C,5.0800*%
%ADD41R,1.5000X1.5000*%
%ADD42C,0.1270*%
%ADD43C,0.6000*%
%ADD44C,0.2500*%
%ADD45C,0.1000*%
%ADD46C,0.1250*%
%ADD47C,0.2032*%
%ADD48C,0.2000*%
D32*
X217763Y466000D02*
G03*
X217763Y466000I-12763J0D01*
G01*
Y557000D02*
G03*
X217763Y557000I-12763J0D01*
G01*
X570077Y856000D02*
G03*
X570077Y856000I-26077J0D01*
G01*
X561000Y661000D02*
Y804000D01*
X144000D02*
X561000D01*
X144000Y661000D02*
Y804000D01*
Y661000D02*
X561000D01*
X618000D02*
Y804000D01*
Y661000D02*
X1035000D01*
Y804000D01*
X618000D02*
X1035000D01*
X65651Y336314D02*
X63112Y333774D01*
Y328696D01*
X65651Y326157D01*
X75808D01*
X78347Y328696D01*
Y333774D01*
X75808Y336314D01*
X65651Y341392D02*
X63112Y343931D01*
Y349010D01*
X65651Y351549D01*
X68190D01*
X70729Y349010D01*
Y346470D01*
Y349010D01*
X73269Y351549D01*
X75808D01*
X78347Y349010D01*
Y343931D01*
X75808Y341392D01*
X375117Y261727D02*
X370039D01*
X372578D01*
Y246492D01*
X375117Y249031D01*
X588314Y390349D02*
X585774Y392888D01*
X580696D01*
X578157Y390349D01*
Y380192D01*
X580696Y377653D01*
X585774D01*
X588314Y380192D01*
X593392Y377653D02*
X598470D01*
X595931D01*
Y392888D01*
X593392Y390349D01*
X364651Y298314D02*
X362112Y295774D01*
Y290696D01*
X364651Y288157D01*
X374808D01*
X377347Y290696D01*
Y295774D01*
X374808Y298314D01*
X377347Y313549D02*
Y303392D01*
X367190Y313549D01*
X364651D01*
X362112Y311010D01*
Y305931D01*
X364651Y303392D01*
X400651Y298314D02*
X398112Y295774D01*
Y290696D01*
X400651Y288157D01*
X410808D01*
X413347Y290696D01*
Y295774D01*
X410808Y298314D01*
X413347Y311010D02*
X398112D01*
X405729Y303392D01*
Y313549D01*
X87729Y292804D02*
X85190Y290264D01*
Y285186D01*
X87729Y282647D01*
X97886D01*
X100425Y285186D01*
Y290264D01*
X97886Y292804D01*
X85190Y308039D02*
Y297882D01*
X92808D01*
X90268Y302960D01*
Y305500D01*
X92808Y308039D01*
X97886D01*
X100425Y305500D01*
Y300421D01*
X97886Y297882D01*
X654349Y248686D02*
X656888Y251225D01*
Y256304D01*
X654349Y258843D01*
X644192D01*
X641653Y256304D01*
Y251225D01*
X644192Y248686D01*
X656888Y233451D02*
X654349Y238530D01*
X649270Y243608D01*
X644192D01*
X641653Y241069D01*
Y235990D01*
X644192Y233451D01*
X646731D01*
X649270Y235990D01*
Y243608D01*
X604651Y286314D02*
X602112Y283775D01*
Y278696D01*
X604651Y276157D01*
X614808D01*
X617347Y278696D01*
Y283775D01*
X614808Y286314D01*
X602112Y291392D02*
Y301549D01*
X604651D01*
X614808Y291392D01*
X617347D01*
X579349Y249686D02*
X581888Y252225D01*
Y257304D01*
X579349Y259843D01*
X569192D01*
X566653Y257304D01*
Y252225D01*
X569192Y249686D01*
X579349Y244608D02*
X581888Y242069D01*
Y236990D01*
X579349Y234451D01*
X576810D01*
X574271Y236990D01*
X571731Y234451D01*
X569192D01*
X566653Y236990D01*
Y242069D01*
X569192Y244608D01*
X571731D01*
X574271Y242069D01*
X576810Y244608D01*
X579349D01*
X574271Y242069D02*
Y236990D01*
X725651Y498314D02*
X723112Y495774D01*
Y490696D01*
X725651Y488157D01*
X735808D01*
X738347Y490696D01*
Y495774D01*
X735808Y498314D01*
Y503392D02*
X738347Y505931D01*
Y511010D01*
X735808Y513549D01*
X725651D01*
X723112Y511010D01*
Y505931D01*
X725651Y503392D01*
X728190D01*
X730730Y505931D01*
Y513549D01*
X505314Y933349D02*
X502775Y935888D01*
X497696D01*
X495157Y933349D01*
Y923192D01*
X497696Y920653D01*
X502775D01*
X505314Y923192D01*
X510392Y920653D02*
X515470D01*
X512931D01*
Y935888D01*
X510392Y933349D01*
X523088D02*
X525627Y935888D01*
X530705D01*
X533245Y933349D01*
Y923192D01*
X530705Y920653D01*
X525627D01*
X523088Y923192D01*
Y933349D01*
X525271Y889196D02*
X527810Y891736D01*
Y896814D01*
X525271Y899353D01*
X515114D01*
X512575Y896814D01*
Y891736D01*
X515114Y889196D01*
X512575Y884118D02*
Y879040D01*
Y881579D01*
X527810D01*
X525271Y884118D01*
X512575Y871422D02*
Y866344D01*
Y868883D01*
X527810D01*
X525271Y871422D01*
X608804Y895271D02*
X606264Y897810D01*
X601186D01*
X598647Y895271D01*
Y885114D01*
X601186Y882575D01*
X606264D01*
X608804Y885114D01*
X613882Y882575D02*
X618960D01*
X616421D01*
Y897810D01*
X613882Y895271D01*
X636735Y882575D02*
X626578D01*
X636735Y892732D01*
Y895271D01*
X634196Y897810D01*
X629117D01*
X626578Y895271D01*
X870686Y486651D02*
X873225Y484112D01*
X878304D01*
X880843Y486651D01*
Y496808D01*
X878304Y499347D01*
X873225D01*
X870686Y496808D01*
X865608Y499347D02*
X860529D01*
X863069D01*
Y484112D01*
X865608Y486651D01*
X852912D02*
X850373Y484112D01*
X845294D01*
X842755Y486651D01*
Y489190D01*
X845294Y491730D01*
X847834D01*
X845294D01*
X842755Y494269D01*
Y496808D01*
X845294Y499347D01*
X850373D01*
X852912Y496808D01*
X826686Y489651D02*
X829225Y487112D01*
X834304D01*
X836843Y489651D01*
Y499808D01*
X834304Y502347D01*
X829225D01*
X826686Y499808D01*
X821608Y502347D02*
X816530D01*
X819069D01*
Y487112D01*
X821608Y489651D01*
X801294Y502347D02*
Y487112D01*
X808912Y494729D01*
X798755D01*
X910349Y445686D02*
X912888Y448226D01*
Y453304D01*
X910349Y455843D01*
X900192D01*
X897653Y453304D01*
Y448226D01*
X900192Y445686D01*
X897653Y440608D02*
Y435530D01*
Y438069D01*
X912888D01*
X910349Y440608D01*
X912888Y417755D02*
Y427912D01*
X905270D01*
X907810Y422834D01*
Y420294D01*
X905270Y417755D01*
X900192D01*
X897653Y420294D01*
Y425373D01*
X900192Y427912D01*
X490314Y464349D02*
X487775Y466888D01*
X482696D01*
X480157Y464349D01*
Y454192D01*
X482696Y451653D01*
X487775D01*
X490314Y454192D01*
X495392Y451653D02*
X500470D01*
X497931D01*
Y466888D01*
X495392Y464349D01*
X518245Y466888D02*
X513166Y464349D01*
X508088Y459271D01*
Y454192D01*
X510627Y451653D01*
X515705D01*
X518245Y454192D01*
Y456731D01*
X515705Y459271D01*
X508088D01*
X463686Y403651D02*
X466226Y401112D01*
X471304D01*
X473843Y403651D01*
Y413808D01*
X471304Y416347D01*
X466226D01*
X463686Y413808D01*
X458608Y416347D02*
X453530D01*
X456069D01*
Y401112D01*
X458608Y403651D01*
X445912Y401112D02*
X435755D01*
Y403651D01*
X445912Y413808D01*
Y416347D01*
X547651Y390314D02*
X545112Y387775D01*
Y382696D01*
X547651Y380157D01*
X557808D01*
X560347Y382696D01*
Y387775D01*
X557808Y390314D01*
X560347Y395392D02*
Y400470D01*
Y397931D01*
X545112D01*
X547651Y395392D01*
Y408088D02*
X545112Y410627D01*
Y415705D01*
X547651Y418245D01*
X550190D01*
X552729Y415705D01*
X555269Y418245D01*
X557808D01*
X560347Y415705D01*
Y410627D01*
X557808Y408088D01*
X555269D01*
X552729Y410627D01*
X550190Y408088D01*
X547651D01*
X552729Y410627D02*
Y415705D01*
X465314Y674349D02*
X462775Y676888D01*
X457696D01*
X455157Y674349D01*
Y664192D01*
X457696Y661653D01*
X462775D01*
X465314Y664192D01*
X470392Y661653D02*
X475470D01*
X472931D01*
Y676888D01*
X470392Y674349D01*
X483088Y664192D02*
X485627Y661653D01*
X490705D01*
X493245Y664192D01*
Y674349D01*
X490705Y676888D01*
X485627D01*
X483088Y674349D01*
Y671810D01*
X485627Y669270D01*
X493245D01*
X565196Y581729D02*
X567735Y579190D01*
X572814D01*
X575353Y581729D01*
Y591886D01*
X572814Y594425D01*
X567735D01*
X565196Y591886D01*
X549961Y594425D02*
X560118D01*
X549961Y584268D01*
Y581729D01*
X552500Y579190D01*
X557579D01*
X560118Y581729D01*
X544883D02*
X542344Y579190D01*
X537265D01*
X534726Y581729D01*
Y591886D01*
X537265Y594425D01*
X542344D01*
X544883Y591886D01*
Y581729D01*
X532314Y613349D02*
X529775Y615888D01*
X524696D01*
X522157Y613349D01*
Y603192D01*
X524696Y600653D01*
X529775D01*
X532314Y603192D01*
X547549Y600653D02*
X537392D01*
X547549Y610810D01*
Y613349D01*
X545010Y615888D01*
X539931D01*
X537392Y613349D01*
X552627Y600653D02*
X557705D01*
X555166D01*
Y615888D01*
X552627Y613349D01*
X648301Y540664D02*
X645762Y538125D01*
Y533046D01*
X648301Y530507D01*
X658458D01*
X660997Y533046D01*
Y538125D01*
X658458Y540664D01*
X660997Y555899D02*
Y545742D01*
X650840Y555899D01*
X648301D01*
X645762Y553360D01*
Y548281D01*
X648301Y545742D01*
X660997Y571134D02*
Y560977D01*
X650840Y571134D01*
X648301D01*
X645762Y568595D01*
Y563516D01*
X648301Y560977D01*
X637664Y439699D02*
X635125Y442238D01*
X630046D01*
X627507Y439699D01*
Y429542D01*
X630046Y427003D01*
X635125D01*
X637664Y429542D01*
X652899Y427003D02*
X642742D01*
X652899Y437160D01*
Y439699D01*
X650360Y442238D01*
X645281D01*
X642742Y439699D01*
X668134Y442238D02*
X657977D01*
Y434621D01*
X663055Y437160D01*
X665595D01*
X668134Y434621D01*
Y429542D01*
X665595Y427003D01*
X660516D01*
X657977Y429542D01*
X615664Y439699D02*
X613125Y442238D01*
X608046D01*
X605507Y439699D01*
Y429542D01*
X608046Y427003D01*
X613125D01*
X615664Y429542D01*
X630899Y427003D02*
X620742D01*
X630899Y437160D01*
Y439699D01*
X628360Y442238D01*
X623281D01*
X620742Y439699D01*
X646134Y442238D02*
X641056Y439699D01*
X635977Y434621D01*
Y429542D01*
X638516Y427003D01*
X643595D01*
X646134Y429542D01*
Y432081D01*
X643595Y434621D01*
X635977D01*
X308336Y415301D02*
X310875Y412762D01*
X315954D01*
X318493Y415301D01*
Y425458D01*
X315954Y427997D01*
X310875D01*
X308336Y425458D01*
X293101Y427997D02*
X303258D01*
X293101Y417840D01*
Y415301D01*
X295640Y412762D01*
X300719D01*
X303258Y415301D01*
X288023Y412762D02*
X277866D01*
Y415301D01*
X288023Y425458D01*
Y427997D01*
X315664Y609699D02*
X313125Y612238D01*
X308046D01*
X305507Y609699D01*
Y599542D01*
X308046Y597003D01*
X313125D01*
X315664Y599542D01*
X330899Y597003D02*
X320742D01*
X330899Y607160D01*
Y609699D01*
X328360Y612238D01*
X323281D01*
X320742Y609699D01*
X335977D02*
X338516Y612238D01*
X343595D01*
X346134Y609699D01*
Y607160D01*
X343595Y604621D01*
X346134Y602081D01*
Y599542D01*
X343595Y597003D01*
X338516D01*
X335977Y599542D01*
Y602081D01*
X338516Y604621D01*
X335977Y607160D01*
Y609699D01*
X338516Y604621D02*
X343595D01*
X1059160Y802671D02*
X1043925D01*
Y795053D01*
X1046464Y792514D01*
X1056621D01*
X1059160Y795053D01*
Y802671D01*
X1043925Y787436D02*
Y782358D01*
Y784897D01*
X1059160D01*
X1056621Y787436D01*
X119840Y662329D02*
X135075D01*
Y669947D01*
X132536Y672486D01*
X122379D01*
X119840Y669947D01*
Y662329D01*
X135075Y687721D02*
Y677564D01*
X124918Y687721D01*
X122379D01*
X119840Y685182D01*
Y680103D01*
X122379Y677564D01*
X666510Y880205D02*
X681745D01*
X674128D01*
Y890362D01*
X666510D01*
X681745D01*
Y895440D02*
Y900518D01*
Y897979D01*
X666510D01*
X669049Y895440D01*
X171342Y393288D02*
X166263D01*
X168803D01*
Y380592D01*
X166263Y378053D01*
X163724D01*
X161185Y380592D01*
X176420Y378053D02*
X181498D01*
X178959D01*
Y393288D01*
X176420Y390749D01*
X734785Y378610D02*
Y363375D01*
Y368453D01*
X744942Y378610D01*
X737324Y370993D01*
X744942Y363375D01*
X750020D02*
X755098D01*
X752559D01*
Y378610D01*
X750020Y376071D01*
X912785Y378610D02*
Y363375D01*
Y368453D01*
X922942Y378610D01*
X915324Y370993D01*
X922942Y363375D01*
X938177D02*
X928020D01*
X938177Y373532D01*
Y376071D01*
X935638Y378610D01*
X930559D01*
X928020Y376071D01*
X568765Y798096D02*
Y813331D01*
X558608D01*
X553530D02*
X548452D01*
X550991D01*
Y798096D01*
X553530Y800635D01*
X655853Y335908D02*
Y320673D01*
X666010D01*
X681245D02*
X671088D01*
X681245Y330830D01*
Y333369D01*
X678706Y335908D01*
X673627D01*
X671088Y333369D01*
X482009Y624049D02*
X497244D01*
Y616432D01*
X494705Y613892D01*
X489627D01*
X487087Y616432D01*
Y624049D01*
X482009Y608814D02*
Y603736D01*
Y606275D01*
X497244D01*
X494705Y608814D01*
X442088Y384456D02*
X431931D01*
X429392Y381917D01*
Y376838D01*
X431931Y374299D01*
X442088D01*
X444627Y376838D01*
Y381917D01*
X439549Y379377D02*
X444627Y384456D01*
Y381917D02*
X442088Y384456D01*
X444627Y389534D02*
Y394612D01*
Y392073D01*
X429392D01*
X431931Y389534D01*
X541653Y330081D02*
X556888D01*
Y322463D01*
X554349Y319924D01*
X549271D01*
X546731Y322463D01*
Y330081D01*
Y325003D02*
X541653Y319924D01*
Y314846D02*
Y309768D01*
Y312307D01*
X556888D01*
X554349Y314846D01*
X594347Y275919D02*
X579112D01*
Y283536D01*
X581651Y286076D01*
X586730D01*
X589269Y283536D01*
Y275919D01*
Y280997D02*
X594347Y286076D01*
Y301311D02*
Y291154D01*
X584190Y301311D01*
X581651D01*
X579112Y298772D01*
Y293693D01*
X581651Y291154D01*
X506347Y265919D02*
X491112D01*
Y273536D01*
X493651Y276076D01*
X498730D01*
X501269Y273536D01*
Y265919D01*
Y270997D02*
X506347Y276076D01*
X493651Y281154D02*
X491112Y283693D01*
Y288772D01*
X493651Y291311D01*
X496190D01*
X498730Y288772D01*
Y286232D01*
Y288772D01*
X501269Y291311D01*
X503808D01*
X506347Y288772D01*
Y283693D01*
X503808Y281154D01*
X628653Y341081D02*
X643888D01*
Y333464D01*
X641349Y330924D01*
X636270D01*
X633731Y333464D01*
Y341081D01*
Y336003D02*
X628653Y330924D01*
Y318228D02*
X643888D01*
X636270Y325846D01*
Y315689D01*
X582347Y232919D02*
X567112D01*
Y240537D01*
X569651Y243076D01*
X574729D01*
X577269Y240537D01*
Y232919D01*
Y237997D02*
X582347Y243076D01*
X567112Y258311D02*
Y248154D01*
X574729D01*
X572190Y253232D01*
Y255772D01*
X574729Y258311D01*
X579808D01*
X582347Y255772D01*
Y250693D01*
X579808Y248154D01*
X590653Y259081D02*
X605888D01*
Y251464D01*
X603349Y248924D01*
X598271D01*
X595731Y251464D01*
Y259081D01*
Y254003D02*
X590653Y248924D01*
X605888Y233689D02*
X603349Y238768D01*
X598271Y243846D01*
X593192D01*
X590653Y241307D01*
Y236228D01*
X593192Y233689D01*
X595731D01*
X598271Y236228D01*
Y243846D01*
X154839Y831379D02*
X139604D01*
Y838997D01*
X142143Y841536D01*
X147221D01*
X149761Y838997D01*
Y831379D01*
Y836457D02*
X154839Y841536D01*
X139604Y846614D02*
Y856771D01*
X142143D01*
X152300Y846614D01*
X154839D01*
X775919Y429653D02*
Y444888D01*
X783537D01*
X786076Y442349D01*
Y437271D01*
X783537Y434731D01*
X775919D01*
X780997D02*
X786076Y429653D01*
X791154Y442349D02*
X793693Y444888D01*
X798772D01*
X801311Y442349D01*
Y439810D01*
X798772Y437271D01*
X801311Y434731D01*
Y432192D01*
X798772Y429653D01*
X793693D01*
X791154Y432192D01*
Y434731D01*
X793693Y437271D01*
X791154Y439810D01*
Y442349D01*
X793693Y437271D02*
X798772D01*
X698081Y492347D02*
Y477112D01*
X690463D01*
X687924Y479651D01*
Y484729D01*
X690463Y487269D01*
X698081D01*
X693003D02*
X687924Y492347D01*
X682846Y489808D02*
X680307Y492347D01*
X675228D01*
X672689Y489808D01*
Y479651D01*
X675228Y477112D01*
X680307D01*
X682846Y479651D01*
Y482190D01*
X680307Y484729D01*
X672689D01*
X836081Y477347D02*
Y462112D01*
X828463D01*
X825924Y464651D01*
Y469729D01*
X828463Y472269D01*
X836081D01*
X831003D02*
X825924Y477347D01*
X820846D02*
X815768D01*
X818307D01*
Y462112D01*
X820846Y464651D01*
X808150D02*
X805611Y462112D01*
X800533D01*
X797993Y464651D01*
Y474808D01*
X800533Y477347D01*
X805611D01*
X808150Y474808D01*
Y464651D01*
X839081Y394347D02*
Y379112D01*
X831463D01*
X828924Y381651D01*
Y386730D01*
X831463Y389269D01*
X839081D01*
X834003D02*
X828924Y394347D01*
X823846D02*
X818768D01*
X821307D01*
Y379112D01*
X823846Y381651D01*
X811150Y394347D02*
X806072D01*
X808611D01*
Y379112D01*
X811150Y381651D01*
X797653Y515081D02*
X812888D01*
Y507463D01*
X810349Y504924D01*
X805270D01*
X802731Y507463D01*
Y515081D01*
Y510003D02*
X797653Y504924D01*
Y499846D02*
Y494768D01*
Y497307D01*
X812888D01*
X810349Y499846D01*
X797653Y476993D02*
Y487150D01*
X807810Y476993D01*
X810349D01*
X812888Y479533D01*
Y484611D01*
X810349Y487150D01*
X853919Y499653D02*
Y514888D01*
X861536D01*
X864076Y512349D01*
Y507271D01*
X861536Y504731D01*
X853919D01*
X858997D02*
X864076Y499653D01*
X869154D02*
X874232D01*
X871693D01*
Y514888D01*
X869154Y512349D01*
X881850D02*
X884389Y514888D01*
X889467D01*
X892007Y512349D01*
Y509810D01*
X889467Y507271D01*
X886928D01*
X889467D01*
X892007Y504731D01*
Y502192D01*
X889467Y499653D01*
X884389D01*
X881850Y502192D01*
X875653Y454081D02*
X890888D01*
Y446464D01*
X888349Y443924D01*
X883270D01*
X880731Y446464D01*
Y454081D01*
Y449003D02*
X875653Y443924D01*
Y438846D02*
Y433768D01*
Y436307D01*
X890888D01*
X888349Y438846D01*
X875653Y418532D02*
X890888D01*
X883270Y426150D01*
Y415993D01*
X415919Y509653D02*
Y524888D01*
X423536D01*
X426076Y522349D01*
Y517271D01*
X423536Y514731D01*
X415919D01*
X420997D02*
X426076Y509653D01*
X431154D02*
X436232D01*
X433693D01*
Y524888D01*
X431154Y522349D01*
X454007Y524888D02*
X443850D01*
Y517271D01*
X448928Y519810D01*
X451468D01*
X454007Y517271D01*
Y512192D01*
X451468Y509653D01*
X446389D01*
X443850Y512192D01*
X260379Y464161D02*
Y479396D01*
X267997D01*
X270536Y476857D01*
Y471779D01*
X267997Y469239D01*
X260379D01*
X265457D02*
X270536Y464161D01*
X275614D02*
X280692D01*
X278153D01*
Y479396D01*
X275614Y476857D01*
X298467Y479396D02*
X293388Y476857D01*
X288310Y471779D01*
Y466700D01*
X290849Y464161D01*
X295928D01*
X298467Y466700D01*
Y469239D01*
X295928Y471779D01*
X288310D01*
X261379Y597161D02*
Y612396D01*
X268997D01*
X271536Y609857D01*
Y604779D01*
X268997Y602239D01*
X261379D01*
X266457D02*
X271536Y597161D01*
X276614D02*
X281692D01*
X279153D01*
Y612396D01*
X276614Y609857D01*
X289310Y612396D02*
X299467D01*
Y609857D01*
X289310Y599700D01*
Y597161D01*
X260379Y504161D02*
Y519396D01*
X267997D01*
X270536Y516857D01*
Y511779D01*
X267997Y509239D01*
X260379D01*
X265457D02*
X270536Y504161D01*
X275614D02*
X280692D01*
X278153D01*
Y519396D01*
X275614Y516857D01*
X288310D02*
X290849Y519396D01*
X295928D01*
X298467Y516857D01*
Y514318D01*
X295928Y511779D01*
X298467Y509239D01*
Y506700D01*
X295928Y504161D01*
X290849D01*
X288310Y506700D01*
Y509239D01*
X290849Y511779D01*
X288310Y514318D01*
Y516857D01*
X290849Y511779D02*
X295928D01*
X262379Y555161D02*
Y570396D01*
X269996D01*
X272536Y567857D01*
Y562779D01*
X269996Y560239D01*
X262379D01*
X267457D02*
X272536Y555161D01*
X277614D02*
X282692D01*
X280153D01*
Y570396D01*
X277614Y567857D01*
X290310Y557700D02*
X292849Y555161D01*
X297927D01*
X300467Y557700D01*
Y567857D01*
X297927Y570396D01*
X292849D01*
X290310Y567857D01*
Y565318D01*
X292849Y562779D01*
X300467D01*
X355161Y467621D02*
X370396D01*
Y460004D01*
X367857Y457464D01*
X362779D01*
X360239Y460004D01*
Y467621D01*
Y462543D02*
X355161Y457464D01*
Y442229D02*
Y452386D01*
X365318Y442229D01*
X367857D01*
X370396Y444768D01*
Y449847D01*
X367857Y452386D01*
Y437151D02*
X370396Y434612D01*
Y429533D01*
X367857Y426994D01*
X357700D01*
X355161Y429533D01*
Y434612D01*
X357700Y437151D01*
X367857D01*
X321839Y556379D02*
X306604D01*
Y563997D01*
X309143Y566536D01*
X314221D01*
X316761Y563997D01*
Y556379D01*
Y561457D02*
X321839Y566536D01*
Y581771D02*
Y571614D01*
X311682Y581771D01*
X309143D01*
X306604Y579232D01*
Y574153D01*
X309143Y571614D01*
X321839Y586849D02*
Y591927D01*
Y589388D01*
X306604D01*
X309143Y586849D01*
X907355Y633195D02*
X922590D01*
Y625578D01*
X920051Y623038D01*
X914973D01*
X912433Y625578D01*
Y633195D01*
Y628117D02*
X907355Y623038D01*
Y617960D02*
X922590D01*
Y610342D01*
X920051Y607803D01*
X914973D01*
X912433Y610342D01*
Y617960D01*
X907355Y602725D02*
Y597646D01*
Y600186D01*
X922590D01*
X920051Y602725D01*
X141123Y445296D02*
X138584Y442757D01*
Y437678D01*
X141123Y435139D01*
X143662D01*
X146201Y437678D01*
Y442757D01*
X148741Y445296D01*
X151280D01*
X153819Y442757D01*
Y437678D01*
X151280Y435139D01*
X138584Y450374D02*
X153819D01*
Y457992D01*
X151280Y460531D01*
X148741D01*
X146201Y457992D01*
Y450374D01*
Y457992D01*
X143662Y460531D01*
X141123D01*
X138584Y457992D01*
Y450374D01*
X153819Y465609D02*
Y470687D01*
Y468148D01*
X138584D01*
X141123Y465609D01*
X268877Y577704D02*
X271416Y580243D01*
Y585322D01*
X268877Y587861D01*
X266338D01*
X263799Y585322D01*
Y580243D01*
X261259Y577704D01*
X258720D01*
X256181Y580243D01*
Y585322D01*
X258720Y587861D01*
X271416Y572626D02*
X256181D01*
Y565008D01*
X258720Y562469D01*
X261259D01*
X263799Y565008D01*
Y572626D01*
Y565008D01*
X266338Y562469D01*
X268877D01*
X271416Y565008D01*
Y572626D01*
X256181Y547234D02*
Y557391D01*
X266338Y547234D01*
X268877D01*
X271416Y549773D01*
Y554852D01*
X268877Y557391D01*
X544267Y360018D02*
Y347322D01*
X546806Y344783D01*
X551884D01*
X554424Y347322D01*
Y360018D01*
X559502Y344783D02*
X564580D01*
X562041D01*
Y360018D01*
X559502Y357479D01*
X495962Y434357D02*
X508658D01*
X511197Y436896D01*
Y441974D01*
X508658Y444514D01*
X495962D01*
X511197Y459749D02*
Y449592D01*
X501040Y459749D01*
X498501D01*
X495962Y457210D01*
Y452131D01*
X498501Y449592D01*
X748982Y430267D02*
X761678D01*
X764217Y432806D01*
Y437884D01*
X761678Y440424D01*
X748982D01*
X751521Y445502D02*
X748982Y448041D01*
Y453120D01*
X751521Y455659D01*
X754060D01*
X756600Y453120D01*
Y450580D01*
Y453120D01*
X759139Y455659D01*
X761678D01*
X764217Y453120D01*
Y448041D01*
X761678Y445502D01*
X171460Y836331D02*
X186695D01*
Y846488D01*
X171460Y851566D02*
X186695D01*
Y859184D01*
X184156Y861723D01*
X173999D01*
X171460Y859184D01*
Y851566D01*
X186695Y866801D02*
Y871880D01*
Y869340D01*
X171460D01*
X173999Y866801D01*
X457540Y872669D02*
X442305D01*
Y862512D01*
X457540Y857434D02*
X442305D01*
Y849816D01*
X444844Y847277D01*
X455001D01*
X457540Y849816D01*
Y857434D01*
X442305Y832042D02*
Y842199D01*
X452462Y832042D01*
X455001D01*
X457540Y834581D01*
Y839660D01*
X455001Y842199D01*
X387540Y872669D02*
X372305D01*
Y862512D01*
X387540Y857434D02*
X372305D01*
Y849816D01*
X374844Y847277D01*
X385001D01*
X387540Y849816D01*
Y857434D01*
X385001Y842199D02*
X387540Y839660D01*
Y834581D01*
X385001Y832042D01*
X382462D01*
X379922Y834581D01*
Y837121D01*
Y834581D01*
X377383Y832042D01*
X374844D01*
X372305Y834581D01*
Y839660D01*
X374844Y842199D01*
X318540Y872669D02*
X303305D01*
Y862512D01*
X318540Y857434D02*
X303305D01*
Y849816D01*
X305844Y847277D01*
X316001D01*
X318540Y849816D01*
Y857434D01*
X303305Y834581D02*
X318540D01*
X310923Y842199D01*
Y832042D01*
X390379Y911161D02*
Y926396D01*
X397996D01*
X400536Y923857D01*
Y918779D01*
X397996Y916239D01*
X390379D01*
X395457D02*
X400536Y911161D01*
X415771D02*
X405614D01*
X415771Y921318D01*
Y923857D01*
X413232Y926396D01*
X408153D01*
X405614Y923857D01*
X431006Y911161D02*
X420849D01*
X431006Y921318D01*
Y923857D01*
X428467Y926396D01*
X423388D01*
X420849Y923857D01*
X317379Y911161D02*
Y926396D01*
X324996D01*
X327536Y923857D01*
Y918779D01*
X324996Y916239D01*
X317379D01*
X322457D02*
X327536Y911161D01*
X342771D02*
X332614D01*
X342771Y921318D01*
Y923857D01*
X340232Y926396D01*
X335153D01*
X332614Y923857D01*
X347849D02*
X350388Y926396D01*
X355467D01*
X358006Y923857D01*
Y921318D01*
X355467Y918779D01*
X352928D01*
X355467D01*
X358006Y916239D01*
Y913700D01*
X355467Y911161D01*
X350388D01*
X347849Y913700D01*
X249379Y911161D02*
Y926396D01*
X256996D01*
X259536Y923857D01*
Y918779D01*
X256996Y916239D01*
X249379D01*
X254457D02*
X259536Y911161D01*
X274771D02*
X264614D01*
X274771Y921318D01*
Y923857D01*
X272232Y926396D01*
X267153D01*
X264614Y923857D01*
X287467Y911161D02*
Y926396D01*
X279849Y918779D01*
X290006D01*
D42*
X570000Y623000D02*
G03*
X570000Y623000I-25000J0D01*
G01*
X654000Y854000D02*
G03*
X654000Y854000I-25000J0D01*
G01*
X509000Y869000D02*
G03*
X509000Y869000I-25000J0D01*
G01*
X154000Y313000D02*
G03*
X154000Y313000I-25000J0D01*
G01*
X420000Y302000D02*
G03*
X420000Y302000I-25000J0D01*
G01*
X844472Y562672D02*
G03*
X844472Y631328I16528J34328D01*
G01*
X540500Y372498D02*
G03*
X540500Y417499I0J22500D01*
G01*
X475609Y417498D02*
G03*
X475596Y372498I-109J-22500D01*
G01*
X532300Y629350D02*
Y642050D01*
X525950Y635700D02*
X538650D01*
X641700Y834950D02*
Y847650D01*
X635350Y841300D02*
X648050D01*
X464950Y856300D02*
X477650D01*
X471300Y849950D02*
Y862650D01*
X135350Y325700D02*
X148050D01*
X141700Y319350D02*
Y332050D01*
X401350Y314700D02*
X414050D01*
X407700Y308350D02*
Y321050D01*
X690000Y878300D02*
Y903700D01*
Y878300D02*
X944000D01*
Y903700D01*
X690000D02*
X944000D01*
X824170Y631290D02*
X844472Y631328D01*
X824170Y562710D02*
X844490D01*
X824170D02*
Y631290D01*
X174520Y466000D02*
Y496480D01*
X235480D01*
Y435520D02*
Y496480D01*
X174520Y435520D02*
X235480D01*
X174520D02*
Y466000D01*
X235480Y526520D02*
Y557000D01*
X174520Y526520D02*
X235480D01*
X174520D02*
Y587480D01*
X235480D01*
Y557000D02*
Y587480D01*
X475596Y372498D02*
X540500D01*
X475609Y417499D02*
X540500D01*
X927393Y284000D02*
Y347502D01*
Y284000D02*
X1036612D01*
X940750Y212628D02*
Y284000D01*
Y212628D02*
X1023250D01*
Y284000D01*
X1036612D02*
Y347502D01*
X927393D02*
X1036612D01*
X749393Y284000D02*
Y347502D01*
Y284000D02*
X858612D01*
X762750Y212628D02*
Y284000D01*
Y212628D02*
X845250D01*
Y284000D01*
X858612D02*
Y347502D01*
X749393D02*
X858612D01*
X159280Y351497D02*
X255332D01*
X159280Y209997D02*
Y351497D01*
Y209997D02*
X255332D01*
Y351497D01*
X159280Y235940D02*
X255800D01*
D43*
X556500Y466500D02*
G03*
X556500Y466500I-3000J0D01*
G01*
D44*
X542750Y443500D02*
G03*
X542750Y443500I-1250J0D01*
G01*
D45*
X289166Y839956D02*
G03*
X262834Y839956I-13166J14044D01*
G01*
X358166D02*
G03*
X331834Y839956I-13166J14044D01*
G01*
X428166D02*
G03*
X401834Y839956I-13166J14044D01*
G01*
X200834Y869044D02*
G03*
X227166Y869044I13166J-14044D01*
G01*
X86500Y324000D02*
X105500D01*
Y356000D01*
X86500Y324000D02*
Y356000D01*
X105500D01*
X89650Y338222D02*
X102350D01*
X89650Y341778D02*
X102350D01*
X304650Y450222D02*
X317350D01*
X304650Y453778D02*
X317350D01*
X301500Y436000D02*
X320500D01*
Y468000D01*
X301500Y436000D02*
Y468000D01*
X320500D01*
X306650Y574778D02*
X319350D01*
X306650Y571222D02*
X319350D01*
X303500Y589000D02*
X322500D01*
X303500Y557000D02*
Y589000D01*
X322500Y557000D02*
Y589000D01*
X303500Y557000D02*
X322500D01*
X628650Y404778D02*
X641350D01*
X628650Y401222D02*
X641350D01*
X625500Y419000D02*
X644500D01*
X625500Y387000D02*
Y419000D01*
X644500Y387000D02*
Y419000D01*
X625500Y387000D02*
X644500D01*
X606650Y404778D02*
X619350D01*
X606650Y401222D02*
X619350D01*
X603500Y419000D02*
X622500D01*
X603500Y387000D02*
Y419000D01*
X622500Y387000D02*
Y419000D01*
X603500Y387000D02*
X622500D01*
X537778Y576650D02*
Y589350D01*
X534222Y576650D02*
Y589350D01*
X552000Y573500D02*
Y592500D01*
X520000D02*
X552000D01*
X520000Y573500D02*
X552000D01*
X520000D02*
Y592500D01*
X683222Y531650D02*
Y544350D01*
X686778Y531650D02*
Y544350D01*
X669000Y528500D02*
Y547500D01*
Y528500D02*
X701000D01*
X669000Y547500D02*
X701000D01*
Y528500D02*
Y547500D01*
X470778Y637650D02*
Y650350D01*
X467222Y637650D02*
Y650350D01*
X485000Y634500D02*
Y653500D01*
X453000D02*
X485000D01*
X453000Y634500D02*
X485000D01*
X453000D02*
Y653500D01*
X571650Y395778D02*
X584350D01*
X571650Y392222D02*
X584350D01*
X568500Y410000D02*
X587500D01*
X568500Y378000D02*
Y410000D01*
X587500Y378000D02*
Y410000D01*
X568500Y378000D02*
X587500D01*
X426968Y497588D02*
X431032D01*
X426968Y486412D02*
Y497588D01*
Y486412D02*
X431032D01*
Y497588D01*
X414000Y482500D02*
Y501500D01*
Y482500D02*
X444000D01*
X414000Y501500D02*
X444000D01*
Y482500D02*
Y501500D01*
X458222Y427650D02*
Y440350D01*
X461778Y427650D02*
Y440350D01*
X444000Y424500D02*
Y443500D01*
Y424500D02*
X476000D01*
X444000Y443500D02*
X476000D01*
Y424500D02*
Y443500D01*
X495778Y427650D02*
Y440350D01*
X492222Y427650D02*
Y440350D01*
X510000Y424500D02*
Y443500D01*
X478000D02*
X510000D01*
X478000Y424500D02*
X510000D01*
X478000D02*
Y443500D01*
X873650Y440222D02*
X886350D01*
X873650Y443778D02*
X886350D01*
X870500Y426000D02*
X889500D01*
Y458000D01*
X870500Y426000D02*
Y458000D01*
X889500D01*
X863588Y438968D02*
Y443032D01*
X852412D02*
X863588D01*
X852412Y438968D02*
Y443032D01*
Y438968D02*
X863588D01*
X848500Y456000D02*
X867500D01*
X848500Y426000D02*
Y456000D01*
X867500Y426000D02*
Y456000D01*
X848500Y426000D02*
X867500D01*
X821222Y513650D02*
Y526350D01*
X824778Y513650D02*
Y526350D01*
X807000Y510500D02*
Y529500D01*
Y510500D02*
X839000D01*
X807000Y529500D02*
X839000D01*
Y510500D02*
Y529500D01*
X864968Y487588D02*
X869032D01*
X864968Y476412D02*
Y487588D01*
Y476412D02*
X869032D01*
Y487588D01*
X852000Y472500D02*
Y491500D01*
Y472500D02*
X882000D01*
X852000Y491500D02*
X882000D01*
Y472500D02*
Y491500D01*
X865222Y510650D02*
Y523350D01*
X868778Y510650D02*
Y523350D01*
X851000Y507500D02*
Y526500D01*
Y507500D02*
X883000D01*
X851000Y526500D02*
X883000D01*
Y507500D02*
Y526500D01*
X823968Y406412D02*
X828032D01*
Y417588D01*
X823968D02*
X828032D01*
X823968Y406412D02*
Y417588D01*
X841000Y402500D02*
Y421500D01*
X811000D02*
X841000D01*
X811000Y402500D02*
X841000D01*
X811000D02*
Y421500D01*
X785588Y499968D02*
Y504032D01*
X774412D02*
X785588D01*
X774412Y499968D02*
Y504032D01*
Y499968D02*
X785588D01*
X770500Y517000D02*
X789500D01*
X770500Y487000D02*
Y517000D01*
X789500Y487000D02*
Y517000D01*
X770500Y487000D02*
X789500D01*
X820968Y489412D02*
X825032D01*
Y500588D01*
X820968D02*
X825032D01*
X820968Y489412D02*
Y500588D01*
X838000Y485500D02*
Y504500D01*
X808000D02*
X838000D01*
X808000Y485500D02*
X838000D01*
X808000D02*
Y504500D01*
X510778Y896650D02*
Y909350D01*
X507222Y896650D02*
Y909350D01*
X525000Y893500D02*
Y912500D01*
X493000D02*
X525000D01*
X493000Y893500D02*
X525000D01*
X493000D02*
Y912500D01*
X682968Y504412D02*
X687032D01*
Y515588D01*
X682968D02*
X687032D01*
X682968Y504412D02*
Y515588D01*
X700000Y500500D02*
Y519500D01*
X670000D02*
X700000D01*
X670000Y500500D02*
X700000D01*
X670000D02*
Y519500D01*
X749650Y503778D02*
X762350D01*
X749650Y500222D02*
X762350D01*
X746500Y518000D02*
X765500D01*
X746500Y486000D02*
Y518000D01*
X765500Y486000D02*
Y518000D01*
X746500Y486000D02*
X765500D01*
X786968Y417588D02*
X791032D01*
X786968Y406412D02*
Y417588D01*
Y406412D02*
X791032D01*
Y417588D01*
X774000Y402500D02*
Y421500D01*
Y402500D02*
X804000D01*
X774000Y421500D02*
X804000D01*
Y402500D02*
Y421500D01*
X542650Y244222D02*
X555350D01*
X542650Y247778D02*
X555350D01*
X539500Y230000D02*
X558500D01*
Y262000D01*
X539500Y230000D02*
Y262000D01*
X558500D01*
X578588Y243968D02*
Y248032D01*
X567412D02*
X578588D01*
X567412Y243968D02*
Y248032D01*
Y243968D02*
X578588D01*
X563500Y261000D02*
X582500D01*
X563500Y231000D02*
Y261000D01*
X582500Y231000D02*
Y261000D01*
X563500Y231000D02*
X582500D01*
X628650Y291778D02*
X641350D01*
X628650Y288222D02*
X641350D01*
X625500Y306000D02*
X644500D01*
X625500Y274000D02*
Y306000D01*
X644500Y274000D02*
Y306000D01*
X625500Y274000D02*
X644500D01*
X594412Y243968D02*
Y248032D01*
Y243968D02*
X605588D01*
Y248032D01*
X594412D02*
X605588D01*
X590500Y231000D02*
X609500D01*
Y261000D01*
X590500Y231000D02*
Y261000D01*
X609500D01*
X617650Y243222D02*
X630350D01*
X617650Y246778D02*
X630350D01*
X614500Y229000D02*
X633500D01*
Y261000D01*
X614500Y229000D02*
Y261000D01*
X633500D01*
X424650Y303778D02*
X437350D01*
X424650Y300222D02*
X437350D01*
X421500Y318000D02*
X440500D01*
X421500Y286000D02*
Y318000D01*
X440500Y286000D02*
Y318000D01*
X421500Y286000D02*
X440500D01*
X518412Y276968D02*
Y281032D01*
Y276968D02*
X529588D01*
Y281032D01*
X518412D02*
X529588D01*
X514500Y264000D02*
X533500D01*
Y294000D01*
X514500Y264000D02*
Y294000D01*
X533500D01*
X616588Y325968D02*
Y330032D01*
X605412D02*
X616588D01*
X605412Y325968D02*
Y330032D01*
Y325968D02*
X616588D01*
X601500Y343000D02*
X620500D01*
X601500Y313000D02*
Y343000D01*
X620500Y313000D02*
Y343000D01*
X601500Y313000D02*
X620500D01*
X606412Y286968D02*
Y291032D01*
Y286968D02*
X617588D01*
Y291032D01*
X606412D02*
X617588D01*
X602500Y274000D02*
X621500D01*
Y304000D01*
X602500Y274000D02*
Y304000D01*
X621500D01*
X593778Y353650D02*
Y366350D01*
X590222Y353650D02*
Y366350D01*
X608000Y350500D02*
Y369500D01*
X576000D02*
X608000D01*
X576000Y350500D02*
X608000D01*
X576000D02*
Y369500D01*
X529588Y314968D02*
Y319032D01*
X518412D02*
X529588D01*
X518412Y314968D02*
Y319032D01*
Y314968D02*
X529588D01*
X514500Y332000D02*
X533500D01*
X514500Y302000D02*
Y332000D01*
X533500Y302000D02*
Y332000D01*
X514500Y302000D02*
X533500D01*
X262834Y839956D02*
X289166D01*
X331834D02*
X358166D01*
X401834D02*
X428166D01*
X200834Y869044D02*
X227166D01*
D46*
X327000Y434500D02*
Y469500D01*
X347000Y434500D02*
Y469500D01*
X327000Y434500D02*
X347000D01*
X327000Y469500D02*
X347000D01*
X350000Y554500D02*
Y589500D01*
X330000Y554500D02*
Y589500D01*
X350000D01*
X330000Y554500D02*
X350000D01*
X258500Y476000D02*
X293500D01*
X258500Y496000D02*
X293500D01*
Y476000D02*
Y496000D01*
X258500Y476000D02*
Y496000D01*
X260500Y527000D02*
X295500D01*
X260500Y547000D02*
X295500D01*
Y527000D02*
Y547000D01*
X260500Y527000D02*
Y547000D01*
X258500Y436000D02*
X293500D01*
X258500Y456000D02*
X293500D01*
Y436000D02*
Y456000D01*
X258500Y436000D02*
Y456000D01*
X259500Y569000D02*
X294500D01*
X259500Y589000D02*
X294500D01*
Y569000D02*
Y589000D01*
X259500Y569000D02*
Y589000D01*
X654000Y306000D02*
X724000D01*
X654000Y234000D02*
Y306000D01*
X724000Y234000D02*
Y306000D01*
X654000Y234000D02*
X724000D01*
X183000Y829500D02*
Y864500D01*
X163000Y829500D02*
Y864500D01*
X183000D01*
X163000Y829500D02*
X183000D01*
X247500Y883000D02*
X282500D01*
X247500Y903000D02*
X282500D01*
Y883000D02*
Y903000D01*
X247500Y883000D02*
Y903000D01*
X315500Y883000D02*
X350500D01*
X315500Y903000D02*
X350500D01*
Y883000D02*
Y903000D01*
X315500Y883000D02*
Y903000D01*
X388500Y883000D02*
X423500D01*
X388500Y903000D02*
X423500D01*
Y883000D02*
Y903000D01*
X388500Y883000D02*
Y903000D01*
D47*
X788220Y428868D02*
X818698D01*
X788220Y477130D02*
X823780D01*
X788220Y428868D02*
Y477130D01*
X823780Y433950D02*
Y477130D01*
X818698Y428868D02*
X823780Y433950D01*
X295930Y269220D02*
X361470D01*
Y304780D01*
X295930D02*
X361470D01*
X295930Y269220D02*
Y304780D01*
X542868Y290302D02*
Y320780D01*
X591130Y285220D02*
Y320780D01*
X542868D02*
X591130D01*
X547950Y285220D02*
X591130D01*
X542868Y290302D02*
X547950Y285220D01*
D48*
X628500Y456500D02*
Y541500D01*
X543500Y456500D02*
Y541500D01*
X628500D01*
X543500Y456500D02*
X628500D01*
X397300Y600300D02*
Y625700D01*
X473500D01*
Y600300D02*
Y625700D01*
X397300Y600300D02*
X473500D01*
M02*
